<?xml version="1.0" encoding="UTF-8"?>
<svg id="All_work" data-name="All  work" xmlns="http://www.w3.org/2000/svg" viewBox="0 0 1932.81 1105.43">
  <defs>
    <style>
      .cls-1 {
        fill: #f4da21;
      }

      .cls-1, .cls-2, .cls-3, .cls-4, .cls-5 {
        stroke-width: 0px;
      }

      .cls-2 {
        fill: #37614a;
      }

      .cls-3 {
        fill: #c4c2ae;
      }

      .cls-4 {
        fill: #71c16f;
      }

      .cls-5 {
        fill: #fff;
      }
    </style>
  </defs>
  <g id="name">
    <path class="cls-5" d="M1.01,1102.98c-.67-.73-1.01-1.59-1.01-2.59v-87.93c0-1,.34-1.86,1.01-2.59.67-.73,1.47-1.09,2.4-1.09h19.96c2.36,0,4.08,1.04,5.18,3.13l21.35,37.7v-37.16c0-1,.34-1.86,1.01-2.59.67-.73,1.47-1.09,2.4-1.09h22.86c.93,0,1.73.36,2.4,1.09.67.73,1.01,1.59,1.01,2.59v87.93c0,1-.34,1.86-1.01,2.59-.67.73-1.47,1.09-2.4,1.09h-19.96c-1.43,0-2.53-.32-3.28-.95-.76-.63-1.39-1.36-1.89-2.18l-21.35-34.71v34.16c0,1-.34,1.86-1.01,2.59-.67.73-1.47,1.09-2.4,1.09H3.41c-.93,0-1.73-.36-2.4-1.09Z"/>
    <path class="cls-5" d="M97.63,1102.98c-.67-.73-1.01-1.59-1.01-2.59v-87.93c0-1,.34-1.86,1.01-2.59.67-.73,1.47-1.09,2.4-1.09h64.79c.93,0,1.73.36,2.4,1.09.67.73,1.01,1.59,1.01,2.59v19.19c0,1-.34,1.86-1.01,2.59-.67.73-1.47,1.09-2.4,1.09h-37.89v8.58h35.11c.93,0,1.73.36,2.4,1.09.67.73,1.01,1.59,1.01,2.59v17.69c0,1-.34,1.86-1.01,2.59-.67.73-1.47,1.09-2.4,1.09h-35.11v8.58h38.9c.93,0,1.73.36,2.4,1.09.67.73,1.01,1.59,1.01,2.59v19.19c0,1-.34,1.86-1.01,2.59-.67.73-1.47,1.09-2.4,1.09h-65.8c-.93,0-1.73-.36-2.4-1.09Z"/>
    <path class="cls-5" d="M193.56,1102.51c-1.05-1.04-1.66-2.25-1.83-3.61l-11.62-86.7v-.41c0-.82.27-1.52.82-2.11.55-.59,1.2-.88,1.96-.88h23.49c1.52,0,2.63.27,3.35.82.71.54,1.12,1.5,1.2,2.86l4.29,38.38,5.18-17.01c.84-2.63,2.27-3.95,4.29-3.95h12.88c2.02,0,3.45,1.32,4.29,3.95l5.18,16.88,4.29-38.25c.08-1.36.48-2.31,1.2-2.86.71-.54,1.83-.82,3.35-.82h23.49c.76,0,1.41.29,1.96.88.55.59.82,1.29.82,2.11v.41l-11.62,86.7c-.17,1.36-.78,2.56-1.83,3.61-1.05,1.04-2.38,1.57-3.98,1.57h-18.06c-1.52,0-2.67-.41-3.47-1.22-.8-.82-1.37-1.63-1.71-2.45l-10.36-27.9-10.36,27.9c-.34.82-.91,1.63-1.71,2.45-.8.82-1.96,1.22-3.47,1.22h-18.06c-1.6,0-2.93-.52-3.98-1.57Z"/>
    <path class="cls-5" d="M322.95,1102.98c-.67-.73-1.01-1.59-1.01-2.59v-87.93c0-1,.34-1.86,1.01-2.59.67-.73,1.47-1.09,2.4-1.09h37.39c12.12,0,21.6,2.93,28.42,8.78,6.82,5.85,10.23,13.95,10.23,24.3,0,5.9-1.22,11.09-3.66,15.58-2.44,4.49-5.77,8.19-9.98,11.09l15.54,31.03c.25.54.38,1.04.38,1.5,0,.82-.27,1.52-.82,2.11-.55.59-1.2.88-1.96.88h-25.89c-1.52,0-2.72-.38-3.6-1.16-.88-.77-1.5-1.61-1.83-2.52l-10.86-26h-5.18v26c0,1-.34,1.86-1.01,2.59-.67.73-1.47,1.09-2.4,1.09h-24.76c-.93,0-1.73-.36-2.4-1.09ZM362.74,1048.54c1.85,0,3.28-.66,4.29-1.97,1.01-1.31,1.52-2.97,1.52-4.97s-.49-3.74-1.45-5.24c-.97-1.5-2.42-2.25-4.36-2.25h-9.22v14.43h9.22Z"/>
    <path class="cls-5" d="M417.3,1102.98c-.67-.73-1.01-1.59-1.01-2.59v-87.93c0-1,.34-1.86,1.01-2.59.67-.73,1.47-1.09,2.4-1.09h25.77c.93,0,1.72.36,2.4,1.09.67.73,1.01,1.59,1.01,2.59v87.93c0,1-.34,1.86-1.01,2.59-.68.73-1.47,1.09-2.4,1.09h-25.77c-.93,0-1.73-.36-2.4-1.09Z"/>
    <path class="cls-5" d="M486.64,1102.71c-.93-.91-1.56-1.95-1.89-3.13l-23.75-86.84-.13-.95c0-.82.27-1.52.82-2.11.55-.59,1.2-.88,1.96-.88h23.49c1.6,0,2.86.46,3.79,1.36.93.91,1.56,1.95,1.89,3.13l12,50.63,12-50.63c.34-1.18.97-2.22,1.89-3.13.93-.91,2.19-1.36,3.79-1.36h23.49c.76,0,1.41.29,1.96.88.55.59.82,1.29.82,2.11l-.13.95-23.75,86.84c-.34,1.18-.97,2.22-1.89,3.13-.93.91-2.19,1.36-3.79,1.36h-28.8c-1.6,0-2.86-.45-3.79-1.36Z"/>
    <path class="cls-5" d="M561.79,1102.98c-.67-.73-1.01-1.59-1.01-2.59v-87.93c0-1,.34-1.86,1.01-2.59.67-.73,1.47-1.09,2.4-1.09h64.79c.93,0,1.73.36,2.4,1.09.67.73,1.01,1.59,1.01,2.59v19.19c0,1-.34,1.86-1.01,2.59-.67.73-1.47,1.09-2.4,1.09h-37.89v8.58h35.11c.93,0,1.73.36,2.4,1.09.67.73,1.01,1.59,1.01,2.59v17.69c0,1-.34,1.86-1.01,2.59-.67.73-1.47,1.09-2.4,1.09h-35.11v8.58h38.9c.93,0,1.73.36,2.4,1.09.67.73,1.01,1.59,1.01,2.59v19.19c0,1-.34,1.86-1.01,2.59-.67.73-1.47,1.09-2.4,1.09h-65.8c-.93,0-1.73-.36-2.4-1.09Z"/>
    <path class="cls-5" d="M649.19,1102.98c-.67-.73-1.01-1.59-1.01-2.59v-87.93c0-1,.34-1.86,1.01-2.59.67-.73,1.47-1.09,2.4-1.09h37.39c12.12,0,21.6,2.93,28.42,8.78,6.82,5.85,10.23,13.95,10.23,24.3,0,5.9-1.22,11.09-3.66,15.58-2.44,4.49-5.77,8.19-9.98,11.09l15.54,31.03c.25.54.38,1.04.38,1.5,0,.82-.27,1.52-.82,2.11-.55.59-1.2.88-1.96.88h-25.89c-1.52,0-2.72-.38-3.6-1.16-.88-.77-1.5-1.61-1.83-2.52l-10.86-26h-5.18v26c0,1-.34,1.86-1.01,2.59-.67.73-1.47,1.09-2.4,1.09h-24.76c-.93,0-1.73-.36-2.4-1.09ZM688.98,1048.54c1.85,0,3.28-.66,4.29-1.97,1.01-1.31,1.52-2.97,1.52-4.97s-.49-3.74-1.45-5.24c-.97-1.5-2.42-2.25-4.36-2.25h-9.22v14.43h9.22Z"/>
    <path class="cls-5" d="M787.12,1102.98c-.67-.73-1.01-1.59-1.01-2.59v-62.34h-20.97c-.93,0-1.73-.36-2.4-1.09-.68-.72-1.01-1.59-1.01-2.59v-21.91c0-1,.34-1.86,1.01-2.59.67-.73,1.47-1.09,2.4-1.09h74.01c.93,0,1.72.36,2.4,1.09.67.73,1.01,1.59,1.01,2.59v21.91c0,1-.34,1.86-1.01,2.59-.67.73-1.47,1.09-2.4,1.09h-20.97v62.34c0,1-.34,1.86-1.01,2.59-.67.73-1.47,1.09-2.4,1.09h-25.26c-.93,0-1.73-.36-2.4-1.09Z"/>
    <path class="cls-5" d="M865.11,1096.11c-7.37-6.21-11.05-15.54-11.05-27.97v-55.67c0-1,.34-1.86,1.01-2.59.67-.73,1.47-1.09,2.4-1.09h24.76c.93,0,1.73.36,2.4,1.09.67.73,1.01,1.59,1.01,2.59v55.12c0,3.45.78,6.06,2.34,7.83,1.56,1.77,3.89,2.65,7.01,2.65s5.45-.88,7.01-2.65c1.56-1.77,2.34-4.38,2.34-7.83v-55.12c0-1,.34-1.86,1.01-2.59.67-.73,1.47-1.09,2.4-1.09h24.76c.93,0,1.73.36,2.4,1.09.67.73,1.01,1.59,1.01,2.59v55.67c0,12.43-3.66,21.76-10.99,27.97-7.33,6.22-17.26,9.32-29.81,9.32s-22.63-3.11-30-9.32Z"/>
    <path class="cls-5" d="M953.2,1102.98c-.67-.73-1.01-1.59-1.01-2.59v-87.93c0-1,.34-1.86,1.01-2.59.67-.73,1.47-1.09,2.4-1.09h37.39c12.12,0,21.6,2.93,28.42,8.78,6.82,5.85,10.23,13.95,10.23,24.3,0,5.9-1.22,11.09-3.66,15.58-2.44,4.49-5.77,8.19-9.98,11.09l15.54,31.03c.25.54.38,1.04.38,1.5,0,.82-.27,1.52-.82,2.11-.55.59-1.2.88-1.96.88h-25.89c-1.52,0-2.71-.38-3.6-1.16-.88-.77-1.5-1.61-1.83-2.52l-10.86-26h-5.18v26c0,1-.34,1.86-1.01,2.59-.68.73-1.47,1.09-2.4,1.09h-24.76c-.93,0-1.73-.36-2.4-1.09ZM992.99,1048.54c1.85,0,3.28-.66,4.29-1.97,1.01-1.31,1.52-2.97,1.52-4.97s-.49-3.74-1.45-5.24c-.97-1.5-2.42-2.25-4.36-2.25h-9.22v14.43h9.22Z"/>
    <path class="cls-5" d="M1047.55,1102.98c-.67-.73-1.01-1.59-1.01-2.59v-87.93c0-1,.34-1.86,1.01-2.59.67-.73,1.47-1.09,2.4-1.09h63.66c.92,0,1.72.36,2.4,1.09.67.73,1.01,1.59,1.01,2.59v20.69c0,1-.34,1.86-1.01,2.59-.67.73-1.47,1.09-2.4,1.09h-36.12v10.07h33.6c.93,0,1.72.36,2.4,1.09.67.73,1.01,1.59,1.01,2.59v20.55c0,1-.34,1.86-1.01,2.59-.67.73-1.47,1.09-2.4,1.09h-33.6v25.59c0,1-.34,1.86-1.01,2.59-.67.73-1.47,1.09-2.4,1.09h-24.12c-.93,0-1.73-.36-2.4-1.09Z"/>
    <path class="cls-5" d="M1170.38,1101.48c-6.19-2.63-10.84-6.15-13.96-10.55-3.12-4.4-4.76-9.23-4.93-14.5,0-.82.27-1.52.82-2.11.55-.59,1.2-.88,1.96-.88h24c1.18,0,2.13.16,2.84.48.71.32,1.58.93,2.59,1.84,2.44,2.09,5.56,3.13,9.35,3.13,2.86,0,5.16-.34,6.88-1.02,1.72-.68,2.59-1.61,2.59-2.79,0-1.63-1.14-2.88-3.41-3.74-2.27-.86-6.57-1.75-12.88-2.65-21.72-3.08-32.59-13.07-32.59-29.94,0-6.08,1.62-11.5,4.86-16.27,3.24-4.76,7.77-8.46,13.58-11.09,5.81-2.63,12.5-3.95,20.08-3.95s14.86,1.45,20.84,4.36c5.98,2.91,10.57,6.56,13.77,10.96,3.2,4.4,4.88,8.69,5.05,12.86,0,.82-.27,1.52-.82,2.11-.55.59-1.16.88-1.83.88h-25.26c-1.18,0-2.11-.16-2.78-.48-.67-.32-1.43-.88-2.27-1.7-1.77-1.63-4-2.45-6.69-2.45-4.04,0-6.06,1.27-6.06,3.81,0,1.36.99,2.5,2.97,3.4,1.98.91,5.66,1.72,11.05,2.45,8.42,1.18,15.18,2.95,20.27,5.31,5.09,2.36,8.8,5.51,11.12,9.46,2.31,3.95,3.47,8.92,3.47,14.9,0,6.44-1.81,12.09-5.43,16.95-3.62,4.86-8.61,8.6-14.97,11.23-6.36,2.63-13.54,3.95-21.54,3.95-8.93,0-16.48-1.32-22.67-3.95Z"/>
    <path class="cls-5" d="M1257.09,1096.04c-7.5-6.26-11.49-15.38-12-27.36-.08-2.45-.13-6.4-.13-11.84s.04-9.57.13-12.11c.25-7.8,2.17-14.52,5.75-20.14,3.58-5.63,8.48-9.89,14.71-12.79,6.23-2.9,13.47-4.36,21.72-4.36s15.49,1.45,21.72,4.36c6.23,2.91,11.13,7.17,14.71,12.79,3.58,5.63,5.49,12.34,5.75,20.14.17,5.08.25,9.12.25,12.11s-.08,6.94-.25,11.84c-.5,11.98-4.5,21.1-12,27.36-7.5,6.26-17.56,9.39-30.19,9.39s-22.69-3.13-30.19-9.39ZM1294.03,1076.17c1.64-1.81,2.5-4.58,2.59-8.3.17-5.26.25-9.12.25-11.57,0-2.63-.08-6.4-.25-11.3-.08-3.72-.97-6.49-2.65-8.3-1.69-1.81-3.92-2.72-6.69-2.72s-5.01.91-6.69,2.72c-1.69,1.82-2.57,4.58-2.65,8.3-.08,2.45-.13,6.22-.13,11.3s.04,8.94.13,11.57c.08,3.72.95,6.49,2.59,8.3,1.64,1.82,3.89,2.72,6.76,2.72s5.12-.91,6.76-2.72Z"/>
    <path class="cls-5" d="M1345.24,1102.98c-.67-.73-1.01-1.59-1.01-2.59v-87.93c0-1,.34-1.86,1.01-2.59.67-.73,1.47-1.09,2.4-1.09h25.26c.92,0,1.72.36,2.4,1.09.67.73,1.01,1.59,1.01,2.59v63.7h34.99c.92,0,1.72.36,2.4,1.09.67.73,1.01,1.59,1.01,2.59v20.55c0,1-.34,1.86-1.01,2.59-.67.73-1.47,1.09-2.4,1.09h-63.66c-.93,0-1.73-.36-2.4-1.09Z"/>
    <path class="cls-5" d="M1435.49,1096.11c-7.37-6.21-11.05-15.54-11.05-27.97v-55.67c0-1,.34-1.86,1.01-2.59.67-.73,1.47-1.09,2.4-1.09h24.76c.93,0,1.72.36,2.4,1.09.67.73,1.01,1.59,1.01,2.59v55.12c0,3.45.78,6.06,2.34,7.83,1.56,1.77,3.89,2.65,7.01,2.65s5.45-.88,7.01-2.65c1.56-1.77,2.34-4.38,2.34-7.83v-55.12c0-1,.33-1.86,1.01-2.59.67-.73,1.47-1.09,2.4-1.09h24.76c.92,0,1.72.36,2.4,1.09.67.73,1.01,1.59,1.01,2.59v55.67c0,12.43-3.66,21.76-10.99,27.97-7.33,6.22-17.26,9.32-29.81,9.32s-22.63-3.11-30-9.32Z"/>
    <path class="cls-5" d="M1543.16,1102.98c-.67-.73-1.01-1.59-1.01-2.59v-62.34h-20.97c-.93,0-1.73-.36-2.4-1.09-.67-.72-1.01-1.59-1.01-2.59v-21.91c0-1,.33-1.86,1.01-2.59.67-.73,1.47-1.09,2.4-1.09h74.01c.93,0,1.73.36,2.4,1.09.67.73,1.01,1.59,1.01,2.59v21.91c0,1-.34,1.86-1.01,2.59-.67.73-1.47,1.09-2.4,1.09h-20.97v62.34c0,1-.34,1.86-1.01,2.59-.67.73-1.47,1.09-2.4,1.09h-25.26c-.93,0-1.73-.36-2.4-1.09Z"/>
    <path class="cls-5" d="M1611.87,1102.98c-.67-.73-1.01-1.59-1.01-2.59v-87.93c0-1,.34-1.86,1.01-2.59.67-.73,1.47-1.09,2.4-1.09h25.77c.93,0,1.72.36,2.4,1.09.67.73,1.01,1.59,1.01,2.59v87.93c0,1-.34,1.86-1.01,2.59-.67.73-1.47,1.09-2.4,1.09h-25.77c-.93,0-1.73-.36-2.4-1.09Z"/>
    <path class="cls-5" d="M1670.22,1096.04c-7.5-6.26-11.49-15.38-12-27.36-.08-2.45-.13-6.4-.13-11.84s.04-9.57.13-12.11c.25-7.8,2.17-14.52,5.75-20.14,3.58-5.63,8.48-9.89,14.71-12.79,6.23-2.9,13.47-4.36,21.72-4.36s15.49,1.45,21.72,4.36c6.23,2.91,11.13,7.17,14.71,12.79,3.58,5.63,5.49,12.34,5.75,20.14.17,5.08.25,9.12.25,12.11s-.08,6.94-.25,11.84c-.5,11.98-4.5,21.1-12,27.36-7.5,6.26-17.56,9.39-30.19,9.39s-22.69-3.13-30.19-9.39ZM1707.17,1076.17c1.64-1.81,2.5-4.58,2.59-8.3.17-5.26.25-9.12.25-11.57,0-2.63-.08-6.4-.25-11.3-.08-3.72-.97-6.49-2.65-8.3-1.69-1.81-3.92-2.72-6.69-2.72s-5.01.91-6.69,2.72c-1.69,1.82-2.57,4.58-2.65,8.3-.08,2.45-.13,6.22-.13,11.3s.04,8.94.13,11.57c.08,3.72.95,6.49,2.59,8.3,1.64,1.82,3.89,2.72,6.76,2.72s5.12-.91,6.76-2.72Z"/>
    <path class="cls-5" d="M1758.38,1102.98c-.67-.73-1.01-1.59-1.01-2.59v-87.93c0-1,.34-1.86,1.01-2.59.67-.73,1.47-1.09,2.4-1.09h19.96c2.36,0,4.08,1.04,5.18,3.13l21.35,37.7v-37.16c0-1,.33-1.86,1.01-2.59.67-.73,1.47-1.09,2.4-1.09h22.86c.92,0,1.72.36,2.4,1.09.67.73,1.01,1.59,1.01,2.59v87.93c0,1-.34,1.86-1.01,2.59-.67.73-1.47,1.09-2.4,1.09h-19.96c-1.43,0-2.53-.32-3.28-.95-.76-.63-1.39-1.36-1.89-2.18l-21.35-34.71v34.16c0,1-.34,1.86-1.01,2.59-.68.73-1.47,1.09-2.4,1.09h-22.86c-.93,0-1.73-.36-2.4-1.09Z"/>
    <path class="cls-5" d="M1868.2,1101.48c-6.19-2.63-10.84-6.15-13.96-10.55-3.12-4.4-4.76-9.23-4.93-14.5,0-.82.27-1.52.82-2.11.55-.59,1.2-.88,1.96-.88h24c1.18,0,2.13.16,2.84.48.71.32,1.58.93,2.59,1.84,2.44,2.09,5.56,3.13,9.35,3.13,2.86,0,5.16-.34,6.88-1.02,1.72-.68,2.59-1.61,2.59-2.79,0-1.63-1.14-2.88-3.41-3.74-2.27-.86-6.57-1.75-12.88-2.65-21.72-3.08-32.59-13.07-32.59-29.94,0-6.08,1.62-11.5,4.86-16.27,3.24-4.76,7.77-8.46,13.58-11.09,5.81-2.63,12.5-3.95,20.08-3.95s14.86,1.45,20.84,4.36c5.98,2.91,10.57,6.56,13.77,10.96,3.2,4.4,4.88,8.69,5.05,12.86,0,.82-.27,1.52-.82,2.11-.55.59-1.16.88-1.83.88h-25.26c-1.18,0-2.11-.16-2.78-.48-.67-.32-1.43-.88-2.27-1.7-1.77-1.63-4-2.45-6.69-2.45-4.04,0-6.06,1.27-6.06,3.81,0,1.36.99,2.5,2.97,3.4,1.98.91,5.66,1.72,11.05,2.45,8.42,1.18,15.18,2.95,20.27,5.31,5.09,2.36,8.8,5.51,11.12,9.46,2.31,3.95,3.47,8.92,3.47,14.9,0,6.44-1.81,12.09-5.43,16.95-3.62,4.86-8.61,8.6-14.97,11.23-6.36,2.63-13.54,3.95-21.54,3.95-8.93,0-16.48-1.32-22.67-3.95Z"/>
  </g>
  <g id="name-2" data-name="name">
    <path class="cls-2" d="M1.01,1102.98c-.67-.73-1.01-1.59-1.01-2.59v-87.93c0-1,.34-1.86,1.01-2.59.67-.73,1.47-1.09,2.4-1.09h19.96c2.36,0,4.08,1.04,5.18,3.13l21.35,37.7v-37.16c0-1,.34-1.86,1.01-2.59.67-.73,1.47-1.09,2.4-1.09h22.86c.93,0,1.73.36,2.4,1.09.67.73,1.01,1.59,1.01,2.59v87.93c0,1-.34,1.86-1.01,2.59-.67.73-1.47,1.09-2.4,1.09h-19.96c-1.43,0-2.53-.32-3.28-.95-.76-.63-1.39-1.36-1.89-2.18l-21.35-34.71v34.16c0,1-.34,1.86-1.01,2.59-.67.73-1.47,1.09-2.4,1.09H3.41c-.93,0-1.73-.36-2.4-1.09Z"/>
    <path class="cls-2" d="M97.63,1102.98c-.67-.73-1.01-1.59-1.01-2.59v-87.93c0-1,.34-1.86,1.01-2.59.67-.73,1.47-1.09,2.4-1.09h64.79c.93,0,1.73.36,2.4,1.09.67.73,1.01,1.59,1.01,2.59v19.19c0,1-.34,1.86-1.01,2.59-.67.73-1.47,1.09-2.4,1.09h-37.89v8.58h35.11c.93,0,1.73.36,2.4,1.09.67.73,1.01,1.59,1.01,2.59v17.69c0,1-.34,1.86-1.01,2.59-.67.73-1.47,1.09-2.4,1.09h-35.11v8.58h38.9c.93,0,1.73.36,2.4,1.09.67.73,1.01,1.59,1.01,2.59v19.19c0,1-.34,1.86-1.01,2.59-.67.73-1.47,1.09-2.4,1.09h-65.8c-.93,0-1.73-.36-2.4-1.09Z"/>
    <path class="cls-2" d="M193.56,1102.51c-1.05-1.04-1.66-2.25-1.83-3.61l-11.62-86.7v-.41c0-.82.27-1.52.82-2.11.55-.59,1.2-.88,1.96-.88h23.49c1.52,0,2.63.27,3.35.82.71.54,1.12,1.5,1.2,2.86l4.29,38.38,5.18-17.01c.84-2.63,2.27-3.95,4.29-3.95h12.88c2.02,0,3.45,1.32,4.29,3.95l5.18,16.88,4.29-38.25c.08-1.36.48-2.31,1.2-2.86.71-.54,1.83-.82,3.35-.82h23.49c.76,0,1.41.29,1.96.88.55.59.82,1.29.82,2.11v.41l-11.62,86.7c-.17,1.36-.78,2.56-1.83,3.61-1.05,1.04-2.38,1.57-3.98,1.57h-18.06c-1.52,0-2.67-.41-3.47-1.22-.8-.82-1.37-1.63-1.71-2.45l-10.36-27.9-10.36,27.9c-.34.82-.91,1.63-1.71,2.45-.8.82-1.96,1.22-3.47,1.22h-18.06c-1.6,0-2.93-.52-3.98-1.57Z"/>
    <path class="cls-2" d="M322.95,1102.98c-.67-.73-1.01-1.59-1.01-2.59v-87.93c0-1,.34-1.86,1.01-2.59.67-.73,1.47-1.09,2.4-1.09h37.39c12.12,0,21.6,2.93,28.42,8.78,6.82,5.85,10.23,13.95,10.23,24.3,0,5.9-1.22,11.09-3.66,15.58-2.44,4.49-5.77,8.19-9.98,11.09l15.54,31.03c.25.54.38,1.04.38,1.5,0,.82-.27,1.52-.82,2.11-.55.59-1.2.88-1.96.88h-25.89c-1.52,0-2.72-.38-3.6-1.16-.88-.77-1.5-1.61-1.83-2.52l-10.86-26h-5.18v26c0,1-.34,1.86-1.01,2.59-.67.73-1.47,1.09-2.4,1.09h-24.76c-.93,0-1.73-.36-2.4-1.09ZM362.74,1048.54c1.85,0,3.28-.66,4.29-1.97,1.01-1.31,1.52-2.97,1.52-4.97s-.49-3.74-1.45-5.24c-.97-1.5-2.42-2.25-4.36-2.25h-9.22v14.43h9.22Z"/>
    <path class="cls-2" d="M417.3,1102.98c-.67-.73-1.01-1.59-1.01-2.59v-87.93c0-1,.34-1.86,1.01-2.59.67-.73,1.47-1.09,2.4-1.09h25.77c.93,0,1.72.36,2.4,1.09.67.73,1.01,1.59,1.01,2.59v87.93c0,1-.34,1.86-1.01,2.59-.68.73-1.47,1.09-2.4,1.09h-25.77c-.93,0-1.73-.36-2.4-1.09Z"/>
    <path class="cls-2" d="M486.64,1102.71c-.93-.91-1.56-1.95-1.89-3.13l-23.75-86.84-.13-.95c0-.82.27-1.52.82-2.11.55-.59,1.2-.88,1.96-.88h23.49c1.6,0,2.86.46,3.79,1.36.93.91,1.56,1.95,1.89,3.13l12,50.63,12-50.63c.34-1.18.97-2.22,1.89-3.13.93-.91,2.19-1.36,3.79-1.36h23.49c.76,0,1.41.29,1.96.88.55.59.82,1.29.82,2.11l-.13.95-23.75,86.84c-.34,1.18-.97,2.22-1.89,3.13-.93.91-2.19,1.36-3.79,1.36h-28.8c-1.6,0-2.86-.45-3.79-1.36Z"/>
    <path class="cls-2" d="M561.79,1102.98c-.67-.73-1.01-1.59-1.01-2.59v-87.93c0-1,.34-1.86,1.01-2.59.67-.73,1.47-1.09,2.4-1.09h64.79c.93,0,1.73.36,2.4,1.09.67.73,1.01,1.59,1.01,2.59v19.19c0,1-.34,1.86-1.01,2.59-.67.73-1.47,1.09-2.4,1.09h-37.89v8.58h35.11c.93,0,1.73.36,2.4,1.09.67.73,1.01,1.59,1.01,2.59v17.69c0,1-.34,1.86-1.01,2.59-.67.73-1.47,1.09-2.4,1.09h-35.11v8.58h38.9c.93,0,1.73.36,2.4,1.09.67.73,1.01,1.59,1.01,2.59v19.19c0,1-.34,1.86-1.01,2.59-.67.73-1.47,1.09-2.4,1.09h-65.8c-.93,0-1.73-.36-2.4-1.09Z"/>
    <path class="cls-2" d="M649.19,1102.98c-.67-.73-1.01-1.59-1.01-2.59v-87.93c0-1,.34-1.86,1.01-2.59.67-.73,1.47-1.09,2.4-1.09h37.39c12.12,0,21.6,2.93,28.42,8.78,6.82,5.85,10.23,13.95,10.23,24.3,0,5.9-1.22,11.09-3.66,15.58-2.44,4.49-5.77,8.19-9.98,11.09l15.54,31.03c.25.54.38,1.04.38,1.5,0,.82-.27,1.52-.82,2.11-.55.59-1.2.88-1.96.88h-25.89c-1.52,0-2.72-.38-3.6-1.16-.88-.77-1.5-1.61-1.83-2.52l-10.86-26h-5.18v26c0,1-.34,1.86-1.01,2.59-.67.73-1.47,1.09-2.4,1.09h-24.76c-.93,0-1.73-.36-2.4-1.09ZM688.98,1048.54c1.85,0,3.28-.66,4.29-1.97,1.01-1.31,1.52-2.97,1.52-4.97s-.49-3.74-1.45-5.24c-.97-1.5-2.42-2.25-4.36-2.25h-9.22v14.43h9.22Z"/>
    <path class="cls-2" d="M787.12,1102.98c-.67-.73-1.01-1.59-1.01-2.59v-62.34h-20.97c-.93,0-1.73-.36-2.4-1.09-.68-.72-1.01-1.59-1.01-2.59v-21.91c0-1,.34-1.86,1.01-2.59.67-.73,1.47-1.09,2.4-1.09h74.01c.93,0,1.72.36,2.4,1.09.67.73,1.01,1.59,1.01,2.59v21.91c0,1-.34,1.86-1.01,2.59-.67.73-1.47,1.09-2.4,1.09h-20.97v62.34c0,1-.34,1.86-1.01,2.59-.67.73-1.47,1.09-2.4,1.09h-25.26c-.93,0-1.73-.36-2.4-1.09Z"/>
    <path class="cls-2" d="M865.11,1096.11c-7.37-6.21-11.05-15.54-11.05-27.97v-55.67c0-1,.34-1.86,1.01-2.59.67-.73,1.47-1.09,2.4-1.09h24.76c.93,0,1.73.36,2.4,1.09.67.73,1.01,1.59,1.01,2.59v55.12c0,3.45.78,6.06,2.34,7.83,1.56,1.77,3.89,2.65,7.01,2.65s5.45-.88,7.01-2.65c1.56-1.77,2.34-4.38,2.34-7.83v-55.12c0-1,.34-1.86,1.01-2.59.67-.73,1.47-1.09,2.4-1.09h24.76c.93,0,1.73.36,2.4,1.09.67.73,1.01,1.59,1.01,2.59v55.67c0,12.43-3.66,21.76-10.99,27.97-7.33,6.22-17.26,9.32-29.81,9.32s-22.63-3.11-30-9.32Z"/>
    <path class="cls-2" d="M953.2,1102.98c-.67-.73-1.01-1.59-1.01-2.59v-87.93c0-1,.34-1.86,1.01-2.59.67-.73,1.47-1.09,2.4-1.09h37.39c12.12,0,21.6,2.93,28.42,8.78,6.82,5.85,10.23,13.95,10.23,24.3,0,5.9-1.22,11.09-3.66,15.58-2.44,4.49-5.77,8.19-9.98,11.09l15.54,31.03c.25.54.38,1.04.38,1.5,0,.82-.27,1.52-.82,2.11-.55.59-1.2.88-1.96.88h-25.89c-1.52,0-2.71-.38-3.6-1.16-.88-.77-1.5-1.61-1.83-2.52l-10.86-26h-5.18v26c0,1-.34,1.86-1.01,2.59-.68.73-1.47,1.09-2.4,1.09h-24.76c-.93,0-1.73-.36-2.4-1.09ZM992.99,1048.54c1.85,0,3.28-.66,4.29-1.97,1.01-1.31,1.52-2.97,1.52-4.97s-.49-3.74-1.45-5.24c-.97-1.5-2.42-2.25-4.36-2.25h-9.22v14.43h9.22Z"/>
    <path class="cls-2" d="M1047.55,1102.98c-.67-.73-1.01-1.59-1.01-2.59v-87.93c0-1,.34-1.86,1.01-2.59.67-.73,1.47-1.09,2.4-1.09h63.66c.92,0,1.72.36,2.4,1.09.67.73,1.01,1.59,1.01,2.59v20.69c0,1-.34,1.86-1.01,2.59-.67.73-1.47,1.09-2.4,1.09h-36.12v10.07h33.6c.93,0,1.72.36,2.4,1.09.67.73,1.01,1.59,1.01,2.59v20.55c0,1-.34,1.86-1.01,2.59-.67.73-1.47,1.09-2.4,1.09h-33.6v25.59c0,1-.34,1.86-1.01,2.59-.67.73-1.47,1.09-2.4,1.09h-24.12c-.93,0-1.73-.36-2.4-1.09Z"/>
    <path class="cls-2" d="M1170.38,1101.48c-6.19-2.63-10.84-6.15-13.96-10.55-3.12-4.4-4.76-9.23-4.93-14.5,0-.82.27-1.52.82-2.11.55-.59,1.2-.88,1.96-.88h24c1.18,0,2.13.16,2.84.48.71.32,1.58.93,2.59,1.84,2.44,2.09,5.56,3.13,9.35,3.13,2.86,0,5.16-.34,6.88-1.02,1.72-.68,2.59-1.61,2.59-2.79,0-1.63-1.14-2.88-3.41-3.74-2.27-.86-6.57-1.75-12.88-2.65-21.72-3.08-32.59-13.07-32.59-29.94,0-6.08,1.62-11.5,4.86-16.27,3.24-4.76,7.77-8.46,13.58-11.09,5.81-2.63,12.5-3.95,20.08-3.95s14.86,1.45,20.84,4.36c5.98,2.91,10.57,6.56,13.77,10.96,3.2,4.4,4.88,8.69,5.05,12.86,0,.82-.27,1.52-.82,2.11-.55.59-1.16.88-1.83.88h-25.26c-1.18,0-2.11-.16-2.78-.48-.67-.32-1.43-.88-2.27-1.7-1.77-1.63-4-2.45-6.69-2.45-4.04,0-6.06,1.27-6.06,3.81,0,1.36.99,2.5,2.97,3.4,1.98.91,5.66,1.72,11.05,2.45,8.42,1.18,15.18,2.95,20.27,5.31,5.09,2.36,8.8,5.51,11.12,9.46,2.31,3.95,3.47,8.92,3.47,14.9,0,6.44-1.81,12.09-5.43,16.95-3.62,4.86-8.61,8.6-14.97,11.23-6.36,2.63-13.54,3.95-21.54,3.95-8.93,0-16.48-1.32-22.67-3.95Z"/>
    <path class="cls-2" d="M1257.09,1096.04c-7.5-6.26-11.49-15.38-12-27.36-.08-2.45-.13-6.4-.13-11.84s.04-9.57.13-12.11c.25-7.8,2.17-14.52,5.75-20.14,3.58-5.63,8.48-9.89,14.71-12.79,6.23-2.9,13.47-4.36,21.72-4.36s15.49,1.45,21.72,4.36c6.23,2.91,11.13,7.17,14.71,12.79,3.58,5.63,5.49,12.34,5.75,20.14.17,5.08.25,9.12.25,12.11s-.08,6.94-.25,11.84c-.5,11.98-4.5,21.1-12,27.36-7.5,6.26-17.56,9.39-30.19,9.39s-22.69-3.13-30.19-9.39ZM1294.03,1076.17c1.64-1.81,2.5-4.58,2.59-8.3.17-5.26.25-9.12.25-11.57,0-2.63-.08-6.4-.25-11.3-.08-3.72-.97-6.49-2.65-8.3-1.69-1.81-3.92-2.72-6.69-2.72s-5.01.91-6.69,2.72c-1.69,1.82-2.57,4.58-2.65,8.3-.08,2.45-.13,6.22-.13,11.3s.04,8.94.13,11.57c.08,3.72.95,6.49,2.59,8.3,1.64,1.82,3.89,2.72,6.76,2.72s5.12-.91,6.76-2.72Z"/>
    <path class="cls-2" d="M1345.24,1102.98c-.67-.73-1.01-1.59-1.01-2.59v-87.93c0-1,.34-1.86,1.01-2.59.67-.73,1.47-1.09,2.4-1.09h25.26c.92,0,1.72.36,2.4,1.09.67.73,1.01,1.59,1.01,2.59v63.7h34.99c.92,0,1.72.36,2.4,1.09.67.73,1.01,1.59,1.01,2.59v20.55c0,1-.34,1.86-1.01,2.59-.67.73-1.47,1.09-2.4,1.09h-63.66c-.93,0-1.73-.36-2.4-1.09Z"/>
    <path class="cls-2" d="M1435.49,1096.11c-7.37-6.21-11.05-15.54-11.05-27.97v-55.67c0-1,.34-1.86,1.01-2.59.67-.73,1.47-1.09,2.4-1.09h24.76c.93,0,1.72.36,2.4,1.09.67.73,1.01,1.59,1.01,2.59v55.12c0,3.45.78,6.06,2.34,7.83,1.56,1.77,3.89,2.65,7.01,2.65s5.45-.88,7.01-2.65c1.56-1.77,2.34-4.38,2.34-7.83v-55.12c0-1,.33-1.86,1.01-2.59.67-.73,1.47-1.09,2.4-1.09h24.76c.92,0,1.72.36,2.4,1.09.67.73,1.01,1.59,1.01,2.59v55.67c0,12.43-3.66,21.76-10.99,27.97-7.33,6.22-17.26,9.32-29.81,9.32s-22.63-3.11-30-9.32Z"/>
    <path class="cls-2" d="M1543.16,1102.98c-.67-.73-1.01-1.59-1.01-2.59v-62.34h-20.97c-.93,0-1.73-.36-2.4-1.09-.67-.72-1.01-1.59-1.01-2.59v-21.91c0-1,.33-1.86,1.01-2.59.67-.73,1.47-1.09,2.4-1.09h74.01c.93,0,1.73.36,2.4,1.09.67.73,1.01,1.59,1.01,2.59v21.91c0,1-.34,1.86-1.01,2.59-.67.73-1.47,1.09-2.4,1.09h-20.97v62.34c0,1-.34,1.86-1.01,2.59-.67.73-1.47,1.09-2.4,1.09h-25.26c-.93,0-1.73-.36-2.4-1.09Z"/>
    <path class="cls-2" d="M1611.87,1102.98c-.67-.73-1.01-1.59-1.01-2.59v-87.93c0-1,.34-1.86,1.01-2.59.67-.73,1.47-1.09,2.4-1.09h25.77c.93,0,1.72.36,2.4,1.09.67.73,1.01,1.59,1.01,2.59v87.93c0,1-.34,1.86-1.01,2.59-.67.73-1.47,1.09-2.4,1.09h-25.77c-.93,0-1.73-.36-2.4-1.09Z"/>
    <path class="cls-2" d="M1670.22,1096.04c-7.5-6.26-11.49-15.38-12-27.36-.08-2.45-.13-6.4-.13-11.84s.04-9.57.13-12.11c.25-7.8,2.17-14.52,5.75-20.14,3.58-5.63,8.48-9.89,14.71-12.79,6.23-2.9,13.47-4.36,21.72-4.36s15.49,1.45,21.72,4.36c6.23,2.91,11.13,7.17,14.71,12.79,3.58,5.63,5.49,12.34,5.75,20.14.17,5.08.25,9.12.25,12.11s-.08,6.94-.25,11.84c-.5,11.98-4.5,21.1-12,27.36-7.5,6.26-17.56,9.39-30.19,9.39s-22.69-3.13-30.19-9.39ZM1707.17,1076.17c1.64-1.81,2.5-4.58,2.59-8.3.17-5.26.25-9.12.25-11.57,0-2.63-.08-6.4-.25-11.3-.08-3.72-.97-6.49-2.65-8.3-1.69-1.81-3.92-2.72-6.69-2.72s-5.01.91-6.69,2.72c-1.69,1.82-2.57,4.58-2.65,8.3-.08,2.45-.13,6.22-.13,11.3s.04,8.94.13,11.57c.08,3.72.95,6.49,2.59,8.3,1.64,1.82,3.89,2.72,6.76,2.72s5.12-.91,6.76-2.72Z"/>
    <path class="cls-2" d="M1758.38,1102.98c-.67-.73-1.01-1.59-1.01-2.59v-87.93c0-1,.34-1.86,1.01-2.59.67-.73,1.47-1.09,2.4-1.09h19.96c2.36,0,4.08,1.04,5.18,3.13l21.35,37.7v-37.16c0-1,.33-1.86,1.01-2.59.67-.73,1.47-1.09,2.4-1.09h22.86c.92,0,1.72.36,2.4,1.09.67.73,1.01,1.59,1.01,2.59v87.93c0,1-.34,1.86-1.01,2.59-.67.73-1.47,1.09-2.4,1.09h-19.96c-1.43,0-2.53-.32-3.28-.95-.76-.63-1.39-1.36-1.89-2.18l-21.35-34.71v34.16c0,1-.34,1.86-1.01,2.59-.68.73-1.47,1.09-2.4,1.09h-22.86c-.93,0-1.73-.36-2.4-1.09Z"/>
    <path class="cls-2" d="M1868.2,1101.48c-6.19-2.63-10.84-6.15-13.96-10.55-3.12-4.4-4.76-9.23-4.93-14.5,0-.82.27-1.52.82-2.11.55-.59,1.2-.88,1.96-.88h24c1.18,0,2.13.16,2.84.48.71.32,1.58.93,2.59,1.84,2.44,2.09,5.56,3.13,9.35,3.13,2.86,0,5.16-.34,6.88-1.02,1.72-.68,2.59-1.61,2.59-2.79,0-1.63-1.14-2.88-3.41-3.74-2.27-.86-6.57-1.75-12.88-2.65-21.72-3.08-32.59-13.07-32.59-29.94,0-6.08,1.62-11.5,4.86-16.27,3.24-4.76,7.77-8.46,13.58-11.09,5.81-2.63,12.5-3.95,20.08-3.95s14.86,1.45,20.84,4.36c5.98,2.91,10.57,6.56,13.77,10.96,3.2,4.4,4.88,8.69,5.05,12.86,0,.82-.27,1.52-.82,2.11-.55.59-1.16.88-1.83.88h-25.26c-1.18,0-2.11-.16-2.78-.48-.67-.32-1.43-.88-2.27-1.7-1.77-1.63-4-2.45-6.69-2.45-4.04,0-6.06,1.27-6.06,3.81,0,1.36.99,2.5,2.97,3.4,1.98.91,5.66,1.72,11.05,2.45,8.42,1.18,15.18,2.95,20.27,5.31,5.09,2.36,8.8,5.51,11.12,9.46,2.31,3.95,3.47,8.92,3.47,14.9,0,6.44-1.81,12.09-5.43,16.95-3.62,4.86-8.61,8.6-14.97,11.23-6.36,2.63-13.54,3.95-21.54,3.95-8.93,0-16.48-1.32-22.67-3.95Z"/>
  </g>
  <g>
    <circle class="cls-1" cx="964.07" cy="397.09" r="397.09"/>
    <path class="cls-2" d="M1254.66,397.09c3.9-.07,7.73-.5,11.47-1.23-3.74.73-7.56,1.16-11.47,1.23Z"/>
    <path class="cls-2" d="M1001.78,735.37c22.91-29.66,49.84-64.5,80.19-97.93-30.63,33.57-57.67,68.48-80.19,97.93Z"/>
    <path class="cls-2" d="M821.69,452.21c-16.9.29-33.02,3.56-48.32,9.11,15.58-5.18,31.8-7.81,48.32-9.11Z"/>
    <path class="cls-2" d="M905.88,450.85c-11.48-.05-22.89.01-34.24.15,11.47.05,22.92.14,34.24-.15Z"/>
    <path class="cls-2" d="M1347.14,511.46c-44.19-11.16-86.87-3.43-126.99,15.5,39.73-18.53,82.28-26.14,126.99-15.5Z"/>
    <path class="cls-2" d="M534.47,706.24c-3.63.98-7.21,2.14-10.74,3.44,16.67-4.46,32.53-9.24,47.45-14.2-11.29,3.6-23.47,7.19-36.72,10.76Z"/>
    <path class="cls-2" d="M630.86,591.08c11.37-16.21,23.02-32.46,36-48.11-13.55,16.1-25.58,32.65-36,48.11Z"/>
    <path class="cls-2" d="M1095.88,310.49c.91.05,1.82.15,2.75.27-.92-.12-1.84-.22-2.75-.27-11.47-.53-20.04,1.35-27.6,5.03,7.56-3.69,16.13-5.57,27.6-5.03Z"/>
    <path class="cls-2" d="M928.91,520.61c3.67-3.36,7.39-6.67,11.17-9.94-3.78,3.27-7.51,6.58-11.17,9.94Z"/>
    <path class="cls-2" d="M1301.01,382.76c11.64-5.49,22.93-10.78,34.36-12.17-11.46,1.39-22.73,6.68-34.36,12.17Z"/>
    <path class="cls-2" d="M1371.73,380.39c-12.65-6.35-18.75-8.49-21.6-9.17-.28-.06-.55-.1-.83-.15.28.06.55.09.83.15,2.85.68,8.95,2.82,21.6,9.17Z"/>
    <path class="cls-2" d="M651.38,663.83c15.39-7.19,28.36-14.03,38.56-20.02-11.55,6.26-24.01,13-38.56,20.02Z"/>
    <path class="cls-2" d="M1011.77,801.66c-32.76,19.77-70.05,38.21-116.15,53.58,46.56-15.21,83.46-33.58,116.15-53.58Z"/>
    <path class="cls-2" d="M633.61,838.58c1.21-.92,2.43-1.82,3.67-2.7-1.26.85-2.53,1.72-3.67,2.7Z"/>
    <path class="cls-2" d="M926.5,522.82c-14.3,13.26-27.75,27.19-40.65,41.58,12.9-14.39,26.35-28.32,40.65-41.58Z"/>
    <path class="cls-2" d="M1197.25,676.87c-26.92,13.99-50.71,29.97-73.95,46.72,22.56-15.94,46.48-31.72,73.95-46.72Z"/>
    <path class="cls-2" d="M926.5,941.75c133.63-.16,553.22,0,553.22,0,19.33,0,35-15.67,35-35,0,0-1.34-300.53,0-425.97.2-18.92-2.77-56.88-12.22-83.68-6.46-18.33-31.54-39.02-42.44-45.99-11.94-7.63-45.79-30.7-45.79-30.7-9.95-5.64-18.7-10.35-26.56-14.22-.16-.08-.31-.16-.47-.23-.33-.16-.65-.31-.97-.47-.48-.23-.96-.47-1.43-.69-.03-.01-.06-.03-.09-.04-14.01-6.71-25.17-10.6-35.34-12.11-.04,0-.08-.01-.12-.02-.52-.08-1.04-.15-1.56-.21-.15-.02-.3-.03-.45-.05-.4-.05-.81-.09-1.21-.13-.27-.03-.54-.05-.81-.07-.28-.02-.56-.05-.84-.07-.39-.03-.78-.05-1.18-.07-.15,0-.3-.02-.45-.03-.49-.02-.99-.04-1.48-.05-.05,0-.1,0-.15,0-7.48-.18-14.69.98-22.46,3.26-.15.04-.29.08-.44.13-.24.07-.49.15-.74.23-.33.1-.67.2-1,.31-.03.01-.07.02-.1.03-8.56,2.71-17.89,6.73-29.06,11.81-12.41,5.88-24.08,11.43-35.6,11.62-10.3,0-35.51-20.32-54.76-34.09-11.42-8.17-31-22.28-44.02-31.46-36.42-25.69-52.38-25.54-69.55-24.28-19.23,1.41-27.91,9.12-39.67,16.61-9.99,6.04-18.55,13.46-26.22,21.05-4.22,3.87-8.52,7.79-13.11,11.6-5.81,4.5-11.63,7.94-17.96,9.39-3.86.76-7.82.88-11.72.3-3.79-.65-7.81-2.01-12.14-4.26,0,0,0,0-.01,0-30.91-18.64-80.66-58.15-114.57-80.64-12.92-8.57-38.97-25.48-52.78-32.52-10.34-5.27-23.22-9.6-30.64-10.83,0,0-.01,0-.02,0-9.66-2.86-23.5-1.6-39.87,2.56-27.22,6.26-61.55,20.89-104.12,44.14-28.74,15.34-56.58,32.17-78.78,47.01l-38.23,21.24c-49.57,27.54-81.93,78.45-85.12,135.07l-.94,86.95-4.14,409.62c0,19.33,15.67,35,35,35,178.57,0,358.57.14,478.09,0ZM452.76,397.85c.03-.7.08-1.4.16-2.11.61-6.3,1.92-12.44,3.86-18.34.49-1.48,1.01-2.94,1.58-4.38,1.13-2.89,2.42-5.71,3.85-8.45,6.45-12.35,15.88-23.12,27.55-31.26,132.23-92.21,230.94-142.8,268.2-136.67,7.42,1.22,15.06,3.49,22.84,6.6,2.59,1.03,5.2,2.16,7.82,3.37,3.93,1.82,7.89,3.82,11.87,5.98,27.85,15.15,56.63,38.14,83.09,59.29.01,0,.02.02.04.03,16.73,13.37,32.26,25.77,46.72,35.63,17.61,12.31,31.88,19.78,45.64,21.38,9.67,1.53,18.77.32,27.34-4.45,1.27-.71,2.51-1.43,3.73-2.16,10.64-5.62,22.13-14.77,35.58-27.86,7.94-7.29,14.63-13.42,22.05-17.76,21.48-11.89,41.75-7.35,63.42,5.03,23.43,13.83,49.54,36.76,74.1,53.58,14.83,10.31,28.63,18.04,41.68,20.36,3.02.56,5.96.82,8.8.71,9.93.14,19.29-2.22,28.29-5.58,7.92-2.81,15.32-6.31,22.27-9.6,8.79-4.28,16.03-7.4,22.53-9.33.14-.04.27-.08.41-.12.26-.07.51-.14.76-.21,3.63-.98,7.26-1.66,10.91-1.91.64-.04,1.28-.05,1.92-.07,4.4-.07,8.74.54,13.37,1.84,5.56,1.91,16.64,6.75,38.37,18.78,12.67,7.39,28.27,16.81,48.44,28.32,4.31,2.62,8.32,5.62,11.98,8.95.06.05.12.1.17.15.49.44.96.9,1.44,1.35.13.13.27.25.4.38.41.4.82.81,1.22,1.23.18.19.37.37.55.56.35.37.69.74,1.04,1.11.22.24.45.48.67.72.3.33.59.67.88,1.01.26.29.52.59.77.88.25.3.5.6.74.91.28.34.57.68.84,1.03.22.27.42.55.64.83.3.38.6.77.89,1.16.19.25.37.52.56.77.3.42.61.83.9,1.26.16.24.32.48.48.71.31.45.61.9.91,1.36.15.22.28.45.43.68.3.48.6.95.89,1.43.14.22.26.45.4.68.29.49.58.98.86,1.48.12.22.24.44.36.66.28.51.56,1.02.83,1.53.11.22.22.45.34.67.26.52.53,1.03.78,1.56.11.24.22.48.33.72.24.51.48,1.02.71,1.54.11.26.22.52.33.78.22.5.43,1,.64,1.51.11.28.22.56.33.84.19.49.39.98.57,1.48.11.3.21.61.32.91.17.48.34.96.5,1.44.11.33.21.66.31.99.15.46.3.92.43,1.39.11.36.2.72.3,1.08.12.44.25.88.37,1.32.1.39.19.78.29,1.17.1.42.21.83.31,1.25.1.42.18.85.27,1.27.08.39.17.78.25,1.18.09.45.16.89.24,1.34.07.38.14.75.2,1.13.08.47.14.94.21,1.41.05.36.11.72.15,1.08.06.49.12.98.17,1.47.04.35.08.69.11,1.04.05.51.09,1.01.12,1.52.03.34.06.67.08,1.01.03.51.05,1.02.08,1.54.01.34.03.67.04,1.01.02.51.02,1.02.03,1.53,0,.34.01.69.01,1.03,0,.09,0,.18,0,.28,0,.48,0,.95-.02,1.42,0,.2-.03.39-.04.58-.03.43-.07.86-.12,1.28-.02.19-.05.38-.08.56-.07.5-.15.99-.25,1.48-.01.07-.03.14-.04.21-.13.6-.28,1.2-.45,1.78-.01.04-.02.07-.03.11-.17.57-.36,1.13-.56,1.68-.01.03-.02.06-.03.08-.44,1.16-.97,2.28-1.56,3.34,0,0,0,.02-.01.02-.6,1.07-1.28,2.09-2.02,3.05,0,0-.02.02-.02.03-.33.43-.68.84-1.04,1.25-.07.08-.15.17-.22.25-.35.39-.72.77-1.09,1.14-.03.03-.05.06-.08.08-.37.36-.76.71-1.16,1.04-.16.14-.32.27-.48.4-.26.21-.52.41-.78.61-.18.13-.35.27-.53.4-.39.28-.8.55-1.21.81-.16.1-.33.2-.49.29-.31.19-.63.37-.95.55-.16.08-.31.17-.47.25-.15.08-.31.13-.46.21-.56.28-1.13.54-1.71.78-.27.11-.54.21-.82.31-.24.09-.48.16-.72.24-.64.22-1.27.44-1.93.6-.16.04-.32.08-.49.12-.3.07-.59.13-.89.19-.26.05-.52.1-.78.15-.12.02-.25.03-.37.05-1.22.18-2.47.28-3.73.28h0c-.43,0-.87-.01-1.31-.03-.06,0-.12,0-.18-.01-.32-.02-.65-.05-.97-.08-.63-.3-1.28-.59-1.91-.88-50.67-26.85-118.05-47.94-194.44-63.49-72.98-15.84-156.37-26.84-250.33-31.2-85.48-4.77-168.24-3.59-245.59,2.35-93.6,6.27-179.31,19.24-245.77,38.64-11.17,2.83-22.05,5.78-32.62,8.83-.23,0-.46,0-.69,0-.02,0-.04,0-.06,0-.57-.03-1.14-.07-1.71-.13-.05,0-.1-.01-.15-.02-.52-.06-1.04-.14-1.55-.23-.09-.02-.18-.03-.28-.05-.55-.1-1.09-.23-1.63-.37-.13-.04-.27-.08-.4-.12-.56-.16-1.12-.33-1.67-.52-.19-.07-.37-.13-.56-.2-.61-.23-1.2-.47-1.79-.74-.2-.09-.39-.19-.59-.28-.46-.22-.9-.46-1.34-.7-.18-.1-.36-.19-.53-.29-.55-.32-1.09-.67-1.61-1.03-.17-.12-.34-.24-.5-.36-.53-.38-1.04-.77-1.54-1.18-.02-.02-.05-.04-.07-.05-.56-.47-1.1-.97-1.61-1.48-.03-.03-.06-.06-.09-.09-.03-.03-.05-.05-.08-.08,0,0-.02-.02-.02-.03-.86-.87-1.65-1.81-2.38-2.78-.64-.85-1.25-1.73-1.78-2.65-.02-.04-.04-.07-.06-.11-.34-.59-.65-1.2-.94-1.81-.05-.1-.1-.2-.15-.3-.27-.58-.51-1.18-.73-1.79-.1-.27-.19-.54-.28-.81-.12-.35-.22-.71-.33-1.07-.15-.52-.28-1.05-.4-1.59-.07-.32-.14-.64-.2-.96-.07-.38-.13-.77-.18-1.15-.04-.31-.07-.61-.1-.92-.05-.52-.09-1.05-.11-1.57-.02-.44-.03-.88-.02-1.33,0-.29.01-.58.03-.87ZM1382.24,537.47c-9.91,5.08-20.26,9.25-30.89,12.53-8.52,2.53-17.2,4.51-25.81,6.13-.02,0-.04,0-.06.01-.12.02-.23.04-.35.06-56.03,9.36-99.25,25.29-136.51,45.22-.39.21-.77.41-1.16.62-.55.3-1.1.6-1.65.89-49.45,26.79-88.58,60.57-133.67,95.73-15.81,12.21-32.36,24.54-50.36,36.71.68-.26,1.37-.58,2.04-.95,0,0,0,0,0,0-.4.23-.79.44-1.19.62-.07.03-.14.06-.21.09-.42.19-.84.35-1.26.49-.07.02-.14.04-.2.06-.41.13-.83.24-1.24.33-.48.09-.96.17-1.43.21-.11,0-.22.02-.34.03-.19.01-.37.01-.56.01-.26,0-.52,0-.77,0-.04,0-.08,0-.12,0-4.59-.3-8.76-3.11-11.05-7.01-.03-.05-.06-.1-.09-.15-.13-.22-.24-.45-.36-.68-.07-.15-.15-.3-.22-.46-.06-.13-.11-.27-.17-.4-.1-.25-.2-.5-.29-.76-.01-.04-.03-.08-.04-.13-1.06-3.16-.96-6.74.84-10.16.03-.05.06-.1.08-.14.18-.33.37-.66.58-.99.24-.37.51-.75.79-1.11,0,0,.01-.02.02-.02,0,0,.01-.02.02-.03,2.65-3.4,5.29-6.8,7.92-10.19,3.73-4.8,7.44-9.61,11.14-14.4.99-1.29,2-2.59,3-3.89,1.02-1.33,2.05-2.65,3.07-3.97,30.24-39.08,67.23-85.5,109.53-125.27,29.54-27.07,62.85-51.51,102.85-71.94.47-.24.94-.46,1.41-.7,35.2-15.46,72.55-22.22,111.55-15.26,9.05,1.74,18.01,4.19,26.79,7.36,7.42,2.68,14.61,5.44,21.54,8.26,21.05,8.55,23.26,37.35,4.42,49.15,1.44-.92,2.74-1.96,3.94-3.06-3.71,2.63-7.57,5.01-11.55,7.19ZM633.83,590.32s-.02,0-.03.01c-.37.14-.73.26-1.1.37-.12.04-.24.07-.36.1-.38.1-.76.19-1.13.25-.13.02-.26.04-.4.06-.35.05-.7.1-1.05.12-.48.03-.96.04-1.43.02-.05,0-.1,0-.15,0-.2-.01-.39-.04-.59-.05-.22-.02-.43-.04-.65-.07-.04,0-.08-.01-.12-.02-4.38-.73-8.16-3.64-10.21-7.49,0-.01-.01-.02-.02-.03-.14-.26-.27-.53-.39-.81-.05-.11-.1-.21-.14-.32-.07-.18-.14-.36-.21-.54-.07-.2-.15-.4-.21-.6-.03-.09-.05-.18-.08-.27-.08-.29-.17-.58-.23-.87,0,0,0-.01,0-.02-.77-3.42-.22-7.2,2.15-10.7.05-.07.09-.15.14-.22,0,0,0,0,0,0,12.41-17.62,24.43-35.23,37.47-52.24,16.21-20.75,34.31-41.07,54.57-58.27,5.32-4.44,10.88-8.76,16.73-12.94,4.63-3.31,9.46-6.52,14.47-9.65,9.48-5.7,19.37-10.6,29.68-14.5,15.95-5.66,32.55-8.62,49.5-10.1.84-.03,1.68-.07,2.53-.09,17.26-.66,34.76-1.06,52.4-1.25,13.84.14,27.67.34,41.32-.04,12.67.13,18.45,16.01,8.68,24.09-2.53,2.09-5.02,4.21-7.49,6.34-.35.3-.71.61-1.06.91-1.64,1.42-3.28,2.85-4.9,4.29-.63.56-1.26,1.11-1.88,1.67-.61.55-1.23,1.1-1.84,1.65-.65.59-1.31,1.17-1.95,1.76-.61.56-1.21,1.13-1.82,1.69-1.74,1.6-3.48,3.2-5.2,4.82-1.13,1.06-2.25,2.12-3.37,3.19-1.52,1.45-3.04,2.91-4.55,4.38-1.24,1.21-2.49,2.42-3.72,3.64-1.41,1.39-2.8,2.79-4.2,4.2-1.23,1.24-2.46,2.47-3.68,3.72-1.71,1.75-3.41,3.51-5.1,5.28-.68.71-1.36,1.4-2.04,2.11-.03.03-.06.07-.09.1-2.77,2.92-5.53,5.86-8.26,8.83-1.71,1.86-3.49,3.64-5.32,5.37-9.36,8.52-19.84,15.66-31.23,20.87-10.01,4.45-20.7,7.45-31.75,8.82-.03,0-.07,0-.1.01-28.05,3.22-49.54,8.93-68.32,16.15-24.6,9.27-44.56,21.06-68.7,33.88-8.55,4.39-17.61,8.82-27.57,13.19.98-.15,1.97-.39,2.97-.77ZM660.86,453.45c-4.61,4.71-9.02,9.49-13.28,14.31-11.85,13.14-22.64,27.19-32.99,41.52-6.85,9.4-13.4,18.76-19.8,27.92-8.67,12.41-17.05,24.39-25.61,35.7-.55.73-1.11,1.45-1.66,2.17-.14.18-.27.36-.41.53-10.48,13.55-21.5,26.39-33.68,37.85-19.81,18.35-52.12,9.65-60.1-16.14-1.05-3.42-2.06-6.85-3.04-10.29-.34-1.2-.67-2.4-1-3.6-.67-2.41-1.32-4.82-1.95-7.23-.3-1.16-.61-2.31-.9-3.47-.81-3.17-1.59-6.34-2.33-9.52-.07-.31-.15-.62-.22-.93-.85-3.67-1.66-7.36-2.43-11.05-.14-.65-.26-1.31-.4-1.97-.6-2.94-1.18-5.89-1.73-8.85-.19-1.04-.39-2.08-.58-3.13-.44-2.45-.86-4.91-1.27-7.37-.23-1.38-.47-2.76-.68-4.15-.01-.09-.03-.17-.04-.26-.2-1.27-.37-2.54-.56-3.81-.35-2.33-.71-4.65-1.03-6.98-.53-3.87-1.01-7.75-1.45-11.63-1.76-15.82,7.58-30.8,22.59-36.1,47.84-16.91,106.09-30.37,171.23-39.95,14.87-2.19,23.85,15.69,13.35,26.44ZM510.71,674.6c7.57-3.86,15.55-6.91,23.76-9.11,79.72-21.43,121.5-44.04,155.47-62.43,26.33-14.26,48.08-26.03,81.33-33.47,11.73-2.62,20.33,10.84,12.99,20.35-5.5,7.12-10.97,14.19-16.45,21.22-12.96,16.66-26.08,33.2-39.72,49.3-15.95,18.8-32.6,36.99-50.35,54.01-.07.07-.15.14-.22.21-2.8,2.68-5.64,5.34-8.5,7.96-.84.77-1.69,1.53-2.54,2.29-1.69,1.53-3.4,3.05-5.11,4.56-1.49,1.31-2.98,2.61-4.48,3.9-.9.77-1.81,1.53-2.71,2.3-1.7,1.43-3.39,2.87-5.11,4.28-1.6,1.31-3.21,2.61-4.82,3.9-.54.43-1.08.87-1.62,1.3-1.67,1.33-3.36,2.64-5.05,3.95-2.42,1.86-4.84,3.72-7.31,5.54-2.03,1.5-4.06,2.99-6.11,4.46-2.98,2.13-6.11,3.92-9.33,5.37-13.17,5.69-27.97,6.18-41.14,1.49-9.9-3.6-18.87-10.1-25.52-19.26-14.83-20.42-28.18-41.98-39.92-64.51-1.44-2.77-.32-6.2,2.46-7.62ZM777.71,662.62c.07-.73.2-1.47.38-2.21.18-.74.43-1.48.73-2.21.15-.37.32-.74.5-1.1.55-1.1,1.24-2.19,2.09-3.25,2.14-2.69,4.27-5.38,6.39-8.08,1.19-1.51,2.37-3.01,3.55-4.52,0,0,.01-.02.02-.03,7.41-9.46,14.74-18.93,22.02-28.36,15.15-19,30.73-39.44,47.13-59.69,24.86-30.14,51.15-58.96,81.28-84.73,23.52-18.9,49.04-33.99,77.22-42.47,23.65-6.61,48.58-8.78,73.44-6.25.01,0,.02,0,.03,0,15.46,1.57,30.65,3.33,45.53,5.26,8.93,1.16,17.75,2.38,26.45,3.67.67.1,1.32.22,1.95.37.55.13,1.08.27,1.6.43.08.02.16.04.23.06,4.78,1.51,8.56,4.39,11.23,8,0,.01.02.02.03.04.28.38.55.78.8,1.18.07.11.15.23.22.34.18.3.36.6.53.91.13.24.27.49.4.74.09.18.18.37.27.55.19.4.37.8.54,1.21.02.04.03.09.05.13.41,1.03.75,2.09,1.01,3.17,1.45,5.99.58,12.54-2.87,17.95-.13.2-.26.41-.4.61-.08.11-.16.22-.25.34-1.68,2.31-3.87,4.39-6.61,6.09-.48.3-.94.6-1.42.9-.02.01-.04.02-.06.03-.47.3-.94.6-1.41.89-1.46.92-2.92,1.83-4.36,2.76-1.63,1.05-3.24,2.1-4.85,3.16-.56.37-1.12.73-1.67,1.09-1.45.96-2.88,1.94-4.32,2.91-.77.52-1.55,1.04-2.31,1.57-2.1,1.44-4.18,2.9-6.24,4.36-38.89,27.69-83.03,46.99-129.26,58.9-83.6,21.53-128.37,59.48-171.94,96.46-10.12,8.59-20.12,17.07-30.53,25.31-1.73,1.37-3.48,2.74-5.24,4.1s-3.53,2.71-5.32,4.05c-2.52,1.91-5.56,3.17-8.7,3.44-.03,0-.06,0-.09,0-.45.04-.9.05-1.34.04-.02,0-.04,0-.06,0-.03,0-.07,0-.1,0-.07,0-.15-.01-.22-.02-.46-.02-.91-.05-1.37-.11h0c-3.93-.49-7.52-2.47-10.18-5.31-1.21-1.29-2.23-2.76-2.99-4.35-.46-.96-.83-1.95-1.1-2.98-.18-.69-.31-1.39-.4-2.1-.08-.71-.12-1.43-.1-2.16,0-.36.03-.73.07-1.1ZM774.32,861.38c-.82.35-1.64.7-2.47,1.03-.72.29-1.44.58-2.16.86-.18.07-.37.15-.55.22-34.99,13.62-71.43,14.68-107.9-5.37-1.14-.63-2.28-1.3-3.42-1.96-5.74-3.39-11.47-7.31-17.2-11.8-2.35-1.91-4.7-3.83-7.02-5.78,0,0,0,0,0,0-.2-.16-.37-.33-.56-.5-6.21-5.46-9.05-12.77-8.92-20.05,0-.1.01-.2.01-.29.01-.43.03-.85.06-1.28.04-.5.09-1,.16-1.49,0-.03,0-.05,0-.08.96-7.07,4.7-13.82,10.79-18.48,1.23-.94,2.55-1.8,3.97-2.56,8.07-5.59,16.75-10.2,25.84-13.79,5.46-2.15,11.06-3.94,16.79-5.34,50.16-11.99,86.03-28.75,116.04-48,27.37-17.17,49.65-36.05,71.58-54.67,7.11-6.04,14.17-12.02,21.37-17.91,19.28-15.27,40.41-30.47,66.25-44.83.02-.01.04-.02.06-.03,5.19-2.49,10.19-3.37,14.79-3.01.43.04.87.07,1.3.14.02,0,.04,0,.07,0,6.49.97,12.25,4.45,16.36,9.32.08.09.15.19.23.28.1.12.19.25.29.37,5.1,6.67,7.18,15.73,4.56,24.44-.94,2.76-2.37,5.5-4.42,8.13-1.18,1.52-2.36,3.05-3.54,4.57,0,0,0,0,0,0-3.46,4.46-6.92,8.93-10.36,13.39-17.74,21.95-39.34,50.25-63.79,78.81-40.02,46.69-66.02,63.36-116.52,85.03-.08.04-21.61,30.56-21.69,30.6ZM974.27,867.87c-6.8,1.81-71.59,4.46-78.65,5.62-29.77,4.58-32.95,53.95-62.84,46.62-11.41-2.8-22.66-5.95-33.74-9.45-.1-.04-.21-.07-.31-.11.05.02.09.04.14.06-17.32-5.47-19.58-27.53-3.67-35.91,20.69-10.9,39.66-22.79,57.27-35.43,12.99-9.32,27.49-16.62,42.95-21.77,90.24-30.05,146.77-71.86,201.57-112.42,31.97-23.66,63.15-46.73,100.26-66.02,20.38-10.59,41.78,12.22,27.51,29.37-2.32,2.69-4.62,5.4-6.93,8.12-2.47,2.92-4.94,5.85-7.4,8.79-23.12,27.07-46.36,56.44-70.62,85.09-33.94,39.61-69.99,77.56-112.24,108.88-25.78,18.12-23.2-19.45-53.3-11.43ZM1434.08,914.1c-21.5.74-76.1-6.17-110.57-4.81-18.23,1.38-59.65,5.56-38.54-9.4,5.68-4.03,38.14-21.94,56.89-36.66,51.8-40.68,69.42-76.71,81.36-106.07,9.26-22.76,13.04-44.13,30.29-65.87,6.08-7.66,18.65-3.1,18.98,6.92.25,7.49.48,14.94.7,22.37,1.7,55.08,5.87,84.25,5.62,141.88-.13,30.22,5.45,49.91-44.72,51.64Z"/>
    <path class="cls-5" d="M548.17,746.73c-8.68-11.96-16.79-24.34-24.43-37.04,3.53-1.3,7.1-2.47,10.74-3.44,13.25-3.56,25.43-7.15,36.72-10.76,31.08-10.31,58.12-21.35,80.19-31.65,14.55-7.02,27.01-13.77,38.56-20.02,25.4-13.76,46.56-25.18,77.87-32.65,5.48-7.03,10.95-14.1,16.45-21.22,7.34-9.51-1.26-22.97-12.99-20.35-33.25,7.43-55,19.2-81.33,33.47-33.96,18.39-75.74,41.01-155.47,62.43-8.21,2.21-16.19,5.25-23.76,9.11-2.78,1.41-3.9,4.85-2.46,7.62,11.74,22.53,25.09,44.08,39.92,64.51Z"/>
    <path class="cls-5" d="M648.63,828.65c.32-.18.64-.36.96-.54,1.4-.78,2.8-1.53,4.23-2.25.42-.21.83-.41,1.25-.62,1.31-.65,2.63-1.28,3.97-1.89.36-.16.72-.32,1.08-.48,1.39-.62,2.8-1.21,4.22-1.77.32-.13.64-.26.96-.39,1.58-.62,3.17-1.2,4.77-1.76.26-.09.53-.18.79-.27,1.67-.57,3.35-1.1,5.04-1.6.16-.05.32-.09.48-.14,1.78-.52,3.57-1.01,5.37-1.45,93.74-23.03,141.42-63.45,187.62-102.67,26.72-22.68,52.72-44.73,87.68-62.77,11.06-5.7,22.13-3.1,29.63,3.51,0,0,0,0,0,0,1.18-1.52,2.36-3.05,3.54-4.57,2.04-2.63,3.48-5.37,4.42-8.13,2.63-8.71.54-17.77-4.56-24.44-.1-.12-.19-.25-.29-.37-.08-.09-.15-.19-.23-.28-4.11-4.87-9.87-8.35-16.36-9.32-.02,0-.04,0-.07,0-.43-.06-.87-.09-1.3-.14-4.59-.36-9.6.51-14.79,3.01-.02.01-.04.02-.06.03-25.84,14.36-46.97,29.56-66.25,44.83-7.19,5.88-14.25,11.87-21.37,17.91-21.93,18.62-44.21,37.5-71.58,54.67-30.01,19.24-65.88,36-116.04,48-5.72,1.41-11.33,3.19-16.79,5.34-9.09,3.59-17.76,8.2-25.84,13.79-1.42.76-2.74,1.62-3.97,2.56-6.09,4.66-9.83,11.41-10.79,18.48,0,.03,0,.05,0,.08-.07.5-.12.99-.16,1.49-.03.43-.05.85-.06,1.28,0,.1-.01.2-.01.29-.13,7.28,2.71,14.59,8.92,20.05.19.17.37.34.56.5,1.14-.98,2.41-1.85,3.67-2.7,3.66-2.61,7.45-5.02,11.35-7.23Z"/>
    <path class="cls-5" d="M857.41,873.67c11.69-7.71,24.48-13.86,38.01-18.37.07-.02.13-.04.2-.07,46.1-15.37,83.38-33.81,116.15-53.58,40.14-24.55,73.95-51.52,111.53-78.07,23.24-16.75,47.03-32.73,73.95-46.72,7.29-3.79,14.71-3.29,20.58-.31,2.3-2.72,4.61-5.42,6.93-8.12,14.28-17.15-7.13-39.96-27.51-29.37-37.11,19.29-68.29,42.35-100.26,66.02-54.8,40.56-111.32,82.37-201.57,112.42-15.45,5.15-29.96,12.45-42.95,21.77-17.61,12.64-36.58,24.53-57.27,35.43-15.91,8.38-13.65,30.44,3.67,35.91-.05-.02-.09-.04-.14-.06,19.3-10.38,37.16-21.59,53.75-33.5,1.62-1.16,3.27-2.3,4.94-3.4Z"/>
    <path class="cls-5" d="M778.14,667.97c.27,1.03.64,2.03,1.1,2.98.77,1.59,1.78,3.06,2.99,4.35,2.66,2.84,6.26,4.82,10.18,5.31h0c28.81-36.77,56.31-73.84,86.61-108.51,2.08-2.38,4.17-4.76,6.28-7.11.18-.2.36-.4.54-.6,12.9-14.39,26.35-28.32,40.65-41.58.8-.74,1.61-1.47,2.41-2.21,3.67-3.36,7.39-6.67,11.17-9.94,3.02-2.61,6.07-5.2,9.17-7.74,9.99-8.22,20.72-15.31,32-21.24,7.05-3.71,14.32-6.96,21.75-9.76,2.97-1.12,5.98-2.16,9-3.13,1.51-.48,3.03-.95,4.55-1.4,3.05-.9,6.12-1.72,9.21-2.46,21.63-5.22,44.22-6.77,66.73-4.48,24.74,2.52,48.77,5.51,71.98,8.93,2.67.39,5.09,1.19,7.25,2.29.02-.01.04-.02.06-.03.47-.3.94-.6,1.42-.9,2.74-1.7,4.93-3.77,6.61-6.09.08-.11.17-.22.25-.34.14-.2.26-.41.4-.61,3.45-5.41,4.32-11.96,2.87-17.95-.26-1.08-.6-2.14-1.01-3.17-.02-.04-.03-.09-.05-.13-.16-.41-.35-.81-.54-1.21-.09-.19-.18-.37-.27-.55-.13-.25-.26-.49-.4-.74-.17-.31-.34-.61-.53-.91-.07-.12-.15-.23-.22-.34-.26-.4-.52-.79-.8-1.18,0-.01-.02-.02-.03-.04-2.67-3.61-6.46-6.49-11.23-8-.08-.02-.16-.04-.23-.06-.52-.16-1.05-.31-1.6-.43-.64-.15-1.29-.27-1.95-.37-8.7-1.28-17.52-2.51-26.45-3.67-14.88-1.93-30.06-3.69-45.53-5.26-.01,0-.02,0-.03,0-24.86-2.53-49.79-.36-73.44,6.25-28.19,8.49-53.7,23.58-77.22,42.47-30.13,25.78-56.42,54.6-81.28,84.73-16.39,20.25-31.97,40.7-47.13,59.69-7.28,9.43-14.6,18.9-22.02,28.36,0,0-.01.02-.02.03-1.18,1.51-2.37,3.01-3.55,4.52-2.12,2.7-4.25,5.39-6.39,8.08-.85,1.07-1.54,2.15-2.09,3.25-.18.37-.35.73-.5,1.1-.3.74-.55,1.48-.73,2.21-.18.74-.31,1.48-.38,2.21-.04.37-.06.73-.07,1.1-.02.73.02,1.45.1,2.16.08.71.22,1.41.4,2.1Z"/>
    <path class="cls-5" d="M743.01,475.53c9.76-6.15,19.92-10.75,30.36-14.22,15.3-5.55,31.42-8.82,48.32-9.11,16.46-1.3,33.22-1.29,49.95-1.21,11.35-.14,22.76-.2,34.24-.15.65-.59,1.3-1.17,1.95-1.76.61-.55,1.22-1.1,1.84-1.65.62-.56,1.25-1.12,1.88-1.67,1.62-1.44,3.25-2.87,4.9-4.29.35-.31.71-.61,1.06-.91,2.47-2.13,4.96-4.24,7.49-6.34,9.76-8.08,3.99-23.97-8.68-24.09-13.65.38-27.49.18-41.32.04-17.65.19-35.14.59-52.4,1.25-.85.02-1.68.06-2.53.09-16.95,1.48-33.55,4.44-49.5,10.1-10.32,3.9-20.21,8.8-29.68,14.5-5.01,3.13-9.84,6.35-14.47,9.65-5.86,4.18-11.42,8.5-16.73,12.94-20.26,17.19-38.36,37.52-54.57,58.27-13.04,17.01-25.06,34.62-37.47,52.24,0,0,0,0,0,0-.05.07-.09.15-.14.22-2.38,3.5-2.92,7.28-2.15,10.7,0,0,0,.01,0,.02.07.29.15.58.23.87.03.09.05.18.08.27.06.2.14.4.21.6.07.18.13.36.21.54.04.11.09.21.14.32.12.27.25.54.39.81,0,.01.01.02.02.03,2.05,3.85,5.83,6.76,10.21,7.49.04,0,.08.02.12.02.21.03.43.05.65.07.2.02.39.04.59.05.05,0,.1,0,.15,0,.47.02.95,0,1.43-.02.35-.02.7-.07,1.05-.12.13-.02.26-.03.4-.06.37-.07.75-.15,1.13-.25.12-.03.24-.06.36-.1.36-.11.73-.23,1.1-.37.01,0,.02,0,.03-.01-1,.37-1.99.62-2.97.77,10.42-15.46,22.45-32.01,36-48.11,20.64-24.89,44.63-48.25,76.15-67.44Z"/>
    <path class="cls-5" d="M1385.42,484.19c-6.94-2.82-14.12-5.57-21.54-8.26-8.78-3.18-17.73-5.62-26.79-7.36-39-6.96-76.35-.2-111.55,15.26-.47.23-.94.46-1.41.7-40,20.43-73.32,44.87-102.85,71.94-42.31,39.77-79.29,86.19-109.53,125.27-1.02,1.32-2.05,2.65-3.07,3.97-1.01,1.31-2.01,2.6-3,3.89-3.7,4.8-7.42,9.6-11.14,14.4-2.63,3.39-5.27,6.79-7.92,10.19,0,0-.01.02-.02.03,0,0-.01.02-.02.02-.29.37-.55.74-.79,1.11-.21.33-.4.66-.58.99-.03.05-.06.1-.08.14-1.8,3.42-1.9,7-.84,10.16.01.04.03.08.04.13.09.26.19.51.29.76.06.13.11.27.17.4.07.15.15.3.22.46.12.23.23.46.36.68.03.05.06.1.09.15,2.3,3.91,6.46,6.72,11.05,7.01.04,0,.08,0,.12,0,.26.01.51.01.77,0,.19,0,.37,0,.56-.01.11,0,.22-.02.34-.03.48-.04.96-.12,1.43-.21.41-.08.83-.2,1.24-.33.07-.02.14-.04.2-.06.42-.14.84-.3,1.26-.49.07-.03.14-.06.21-.09.4-.18.79-.39,1.19-.62,0,0,0,0,0,0-.68.38-1.36.69-2.04.95,22.52-29.45,49.56-64.36,80.19-97.93,40.45-44.56,86.99-86.6,138.2-110.49,40.12-18.93,82.8-26.66,126.99-15.5,12.59,3,25.35,7.43,38.27,13.48,3.26,1.33,6.02,3.18,8.36,5.34-1.21,1.1-2.5,2.14-3.94,3.06,18.84-11.81,16.63-40.6-4.42-49.15Z"/>
    <path class="cls-5" d="M647.51,427.02c-65.14,9.58-123.39,23.04-171.23,39.95-15.01,5.31-24.35,20.28-22.59,36.1.44,3.88.92,7.76,1.45,11.63.32,2.34.68,4.66,1.03,6.98.19,1.27.37,2.54.56,3.81,3.78-8.09,10.66-14.64,19.55-17.78,3.97-1.4,8.03-2.77,12.14-4.13,4.22-1.39,8.52-2.76,12.88-4.1,1.94-.6,3.89-1.19,5.85-1.77,7.93-2.36,16.08-4.64,24.45-6.83,4.34-1.14,8.72-2.26,13.17-3.35,7.04-1.73,14.21-3.4,21.52-5.01,21.92-4.84,45.03-9.15,69.14-12.92,4.02-.63,8.06-1.24,12.13-1.84,4.27-4.82,8.68-9.6,13.28-14.31,10.5-10.74,1.52-28.62-13.35-26.44Z"/>
    <path class="cls-5" d="M452.86,401.62c.03.31.06.62.1.92.05.39.11.77.18,1.15.06.32.13.64.2.96.12.54.25,1.06.4,1.59.1.36.21.72.33,1.07.09.27.18.54.28.81.22.6.46,1.2.73,1.79.05.1.1.2.15.3.29.62.6,1.22.94,1.81.02.04.04.07.06.11.53.92,1.14,1.8,1.78,2.65,6.15-16.31,17.2-30.57,31.77-40.73,132.23-92.21,230.94-142.8,268.2-136.68,39.59,6.5,85.3,43.02,125.62,75.24,49.14,39.27,87.96,70.29,119.74,52.59,16.8-9.36,28.76-20.33,39.31-30.02,5.84-5.36,11-10.09,16.27-13.94.96-.7,1.92-1.37,2.89-2.01s1.95-1.25,2.94-1.83c.5-.29,1-.57,1.5-.84.67-.36,1.34-.7,2.03-1.04,7.56-3.69,16.13-5.57,27.6-5.03.91.05,1.82.15,2.75.27,44.24,5.7,110.39,87.96,154.07,86.37.66,0,1.31-.02,1.96-.03,3.91-.07,7.73-.5,11.47-1.23.82-.16,1.63-.35,2.45-.53.26-.06.52-.11.78-.17,11.05-2.65,21.49-7.6,31.65-12.4,11.63-5.49,22.9-10.79,34.36-12.17,4.61-.56,9.24-.47,13.93.47.28.06.55.09.83.15,2.86.68,8.95,2.83,21.6,9.17.84.42,1.72.87,2.62,1.33.96.49,1.96,1.01,2.99,1.54.43.22.86.45,1.29.68,1.06.55,2.14,1.12,3.27,1.73,2.04,1.09,4.21,2.26,6.5,3.51,2.33,1.27,4.79,2.64,7.39,4.09,5.2,2.91,10.95,6.2,17.32,9.92,7.96,4.65,16.88,9.96,26.87,16.03,15.72,9.55,27.31,24.15,33.23,41-1,1.48-2.17,2.83-3.45,4.05,0,0-.01.01-.02.02-.4.38-.82.75-1.24,1.1-.17.14-.35.28-.53.42-.26.21-.52.42-.79.61-.3.22-.62.43-.93.64-.15.1-.3.21-.45.3-.39.25-.79.48-1.19.71-.09.05-.17.1-.26.15-.3.17-.61.32-.92.47.15-.07.31-.13.46-.21.16-.08.31-.17.47-.25.32-.17.64-.36.95-.55.16-.1.33-.19.49-.29.41-.26.81-.53,1.21-.81.18-.13.36-.26.53-.4.26-.2.52-.4.78-.61.16-.13.32-.26.48-.4.39-.34.78-.68,1.16-1.04.03-.03.05-.06.08-.08.38-.37.74-.75,1.09-1.14.07-.08.15-.17.22-.25.36-.41.71-.82,1.04-1.25,0,0,.02-.02.02-.03.74-.96,1.42-1.98,2.02-3.05,0,0,0-.02.01-.02.6-1.07,1.12-2.18,1.56-3.34.01-.03.02-.06.03-.08.21-.55.39-1.11.56-1.68.01-.04.02-.07.03-.11.17-.58.32-1.18.45-1.78.02-.07.03-.14.04-.21.1-.49.18-.98.25-1.48.03-.19.05-.37.08-.56.05-.42.09-.85.12-1.28.01-.19.03-.39.04-.58.02-.47.03-.94.02-1.42,0-.09,0-.18,0-.28,0-.34,0-.69-.01-1.03,0-.51-.01-1.02-.03-1.53-.01-.34-.03-.68-.04-1.01-.02-.51-.04-1.03-.08-1.54-.02-.34-.05-.67-.08-1.01-.04-.51-.08-1.01-.12-1.52-.03-.35-.08-.69-.11-1.04-.05-.49-.11-.98-.17-1.47-.05-.36-.1-.72-.15-1.08-.07-.47-.13-.94-.21-1.41-.06-.38-.13-.75-.2-1.13-.08-.45-.16-.9-.24-1.34-.08-.39-.16-.79-.25-1.18-.09-.42-.18-.85-.27-1.27-.1-.42-.2-.84-.31-1.25-.1-.39-.19-.78-.29-1.17-.12-.44-.24-.88-.37-1.32-.1-.36-.2-.72-.3-1.08-.14-.46-.29-.93-.43-1.39-.1-.33-.2-.66-.31-.99-.16-.48-.33-.96-.5-1.44-.11-.3-.21-.61-.32-.91-.18-.5-.38-.99-.57-1.48-.11-.28-.21-.56-.33-.84-.21-.51-.42-1.01-.64-1.51-.11-.26-.22-.52-.33-.78-.23-.52-.47-1.03-.71-1.54-.11-.24-.22-.48-.33-.72-.25-.52-.51-1.04-.78-1.56-.11-.22-.22-.45-.34-.67-.27-.52-.55-1.03-.83-1.53-.12-.22-.24-.44-.36-.66-.28-.5-.57-.99-.86-1.48-.13-.23-.26-.45-.4-.68-.29-.48-.59-.96-.89-1.43-.14-.23-.28-.45-.43-.68-.3-.46-.6-.91-.91-1.36-.16-.24-.32-.48-.48-.71-.29-.42-.6-.84-.9-1.26-.19-.26-.37-.52-.56-.77-.29-.39-.59-.77-.89-1.16-.21-.28-.42-.56-.64-.83-.28-.35-.56-.69-.84-1.03-.25-.3-.49-.61-.74-.91-.25-.3-.51-.59-.77-.88-.29-.34-.58-.67-.88-1.01-.22-.24-.45-.48-.67-.72-.35-.37-.69-.75-1.04-1.11-.18-.19-.37-.37-.55-.56-.4-.41-.81-.82-1.22-1.23-.13-.13-.27-.25-.4-.38-.47-.46-.95-.91-1.44-1.35-.06-.05-.12-.1-.17-.15-3.66-3.32-7.67-6.33-11.98-8.95-20.17-11.51-35.77-20.92-48.44-28.32-21.72-12.02-32.8-16.86-38.37-18.78-4.63-1.3-8.97-1.91-13.37-1.84-.64.02-1.28.03-1.92.07-3.65.26-7.28.93-10.91,1.91-.25.07-.51.14-.76.21-.14.04-.27.08-.41.12-6.51,1.93-13.74,5.05-22.53,9.33-6.95,3.3-14.35,6.79-22.27,9.6-9.01,3.36-18.37,5.73-28.29,5.58-2.84.1-5.78-.15-8.8-.71-13.05-2.32-26.85-10.05-41.68-20.36-24.56-16.81-50.67-39.75-74.1-53.58-21.68-12.38-41.95-16.92-63.42-5.03-7.42,4.34-14.11,10.47-22.05,17.76-13.45,13.09-24.94,22.24-35.58,27.86-1.22.73-2.46,1.45-3.73,2.16-8.58,4.78-17.68,5.98-27.34,4.45-13.76-1.6-28.03-9.07-45.64-21.38-14.46-9.86-29.99-22.26-46.72-35.63-.01,0-.02-.02-.04-.03-26.46-21.14-55.24-44.14-83.09-59.29-3.98-2.16-7.94-4.17-11.87-5.98-2.62-1.21-5.23-2.34-7.82-3.37-7.78-3.1-15.42-5.38-22.84-6.6-37.26-6.12-135.97,44.47-268.2,136.67-11.67,8.14-21.1,18.91-27.55,31.26-1.43,2.74-2.72,5.57-3.85,8.45-.57,1.44-1.09,2.9-1.58,4.38-1.95,5.9-3.26,12.05-3.86,18.34-.09.71-.13,1.41-.16,2.11-.01.29-.02.58-.03.87,0,.45,0,.89.02,1.33.02.53.06,1.05.11,1.57Z"/>
    <path class="cls-5" d="M460.4,417.6s.05.05.08.08c-.03-.03-.07-.07-.1-.1,0,0,.02.02.02.03Z"/>
    <path class="cls-5" d="M1260.91,729.88c1.34-1.59,2.68-3.17,4.03-4.75.94-1.1,1.88-2.19,2.82-3.29,2.66-3.09,5.34-6.16,8.04-9.21,2.91-3.29,5.86-6.55,8.84-9.79.15-.17.3-.34.46-.5,39.16-42.54,84.03-80.76,144.39-108.93,3.9-1.84,7.89-2.4,11.63-1.96,1.13.13,2.24.35,3.32.65,3.62,1.03,6.9,3,9.51,5.62,1.88-5.78,3.66-11.61,5.3-17.49,4.88-17.44-13.21-32.43-29.76-24.64-40.23,18.93-73.46,42.03-102.71,67.83-.44.39-.87.77-1.3,1.16-1.42,1.26-2.82,2.53-4.22,3.8-.89.82-1.8,1.63-2.68,2.45-.32.29-.63.59-.94.88-3.01,2.8-5.98,5.63-8.92,8.49-.11.1-.21.21-.31.31-44.44,43.32-80.28,92.78-119.27,141.44-24.76,30.97-50.84,61.64-81.15,89.96-1.87,1.76-3.76,3.51-5.67,5.25-4.5,4.08-6.65,9.05-6.97,13.99-.02.38-.04.76-.04,1.14s0,.76.02,1.14c.02.38.05.75.09,1.13.04.43.1.87.17,1.29.13.8.31,1.58.53,2.36.22.78.49,1.54.79,2.28.61,1.49,1.39,2.92,2.31,4.24.46.66.96,1.3,1.49,1.91,1.6,1.82,3.51,3.38,5.66,4.57,3.61-3.37,7.16-6.76,10.66-10.18,55.4-54.25,96.72-115.2,143.88-171.14Z"/>
    <path class="cls-4" d="M1139.81,770.43c24.26-28.64,47.49-58.02,70.62-85.09,2.46-2.94,4.93-5.87,7.4-8.79-5.87-2.98-13.29-3.48-20.58.31-27.47,15-51.39,30.78-73.95,46.72-37.58,26.55-71.39,53.52-111.53,78.07-32.69,19.99-69.59,38.37-116.15,53.58-.07.02-.13.04-.2.07-13.52,4.5-26.32,10.66-38.01,18.37-1.67,1.1-3.32,2.23-4.94,3.4-16.59,11.91-34.44,23.12-53.75,33.5.1.04.21.07.31.11,11.08,3.49,22.04,8.48,33.74,9.45,16.98,1.39,32.72,1.69,62.84,1.22,30.88-.48,48.46-1.75,65.92-7.18,29.75-9.24,40.25-16.73,66.03-34.85,42.25-31.32,78.3-69.27,112.24-108.88Z"/>
    <path class="cls-4" d="M1092.51,460.46c-22.52-2.29-45.1-.74-66.73,4.48-3.09.75-6.16,1.57-9.21,2.46-1.52.45-3.04.91-4.55,1.4-3.02.97-6.03,2.01-9,3.13-7.43,2.79-14.7,6.05-21.75,9.76-11.28,5.93-22.01,13.02-32,21.24-3.1,2.55-6.15,5.14-9.17,7.74-3.78,3.27-7.51,6.58-11.17,9.94-.8.74-1.61,1.47-2.41,2.21-14.3,13.26-27.75,27.19-40.65,41.58-.18.2-.36.4-.54.6-2.11,2.36-4.2,4.73-6.28,7.11-30.3,34.66-57.8,71.74-86.61,108.51.46.06.91.09,1.37.11.07,0,.15.02.22.02.03,0,.07,0,.1,0,.02,0,.04,0,.06,0,.45,0,.9,0,1.34-.04.03,0,.06,0,.09,0,3.14-.27,6.17-1.53,8.7-3.44,1.79-1.34,3.56-2.69,5.32-4.05s3.51-2.72,5.24-4.1c10.41-8.24,20.41-16.72,30.53-25.31,43.57-36.98,88.34-74.93,171.94-96.46,46.23-11.91,90.37-31.22,129.26-58.9,2.06-1.47,4.14-2.92,6.24-4.36.76-.53,1.54-1.04,2.31-1.57,1.43-.97,2.87-1.95,4.32-2.91.55-.37,1.11-.73,1.67-1.09,1.61-1.06,3.22-2.12,4.85-3.16,1.45-.93,2.91-1.85,4.36-2.76.47-.3.94-.6,1.41-.89-2.16-1.1-4.58-1.9-7.25-2.29-23.21-3.43-47.24-6.41-71.98-8.93Z"/>
    <path class="cls-4" d="M727.13,544.02c18.78-7.21,40.27-12.93,68.32-16.15.03,0,.07,0,.1-.01,11.05-1.37,21.74-4.37,31.75-8.82,11.4-5.21,21.87-12.35,31.23-20.87,1.82-1.73,3.61-3.51,5.32-5.37,2.73-2.97,5.49-5.91,8.26-8.83.03-.03.06-.07.09-.1.67-.71,1.36-1.4,2.04-2.11,1.69-1.77,3.39-3.53,5.1-5.28,1.22-1.25,2.45-2.48,3.68-3.72,1.39-1.4,2.79-2.81,4.2-4.2,1.23-1.22,2.48-2.43,3.72-3.64,1.51-1.47,3.02-2.93,4.55-4.38,1.12-1.07,2.24-2.13,3.37-3.19,1.72-1.62,3.46-3.22,5.2-4.82.61-.56,1.21-1.13,1.82-1.69-11.32.28-22.77.2-34.24.15-16.72-.08-33.48-.08-49.95,1.21-16.52,1.3-32.74,3.93-48.32,9.11-10.44,3.47-20.6,8.07-30.36,14.22-31.52,19.19-55.51,42.55-76.15,67.44-12.98,15.65-24.64,31.9-36,48.11,9.97-4.37,19.02-8.8,27.57-13.19,24.13-12.82,44.09-24.61,68.7-33.88Z"/>
    <path class="cls-4" d="M566.3,482.52c-7.31,1.61-14.48,3.28-21.52,5.01-4.45,1.09-8.83,2.22-13.17,3.35-8.37,2.19-16.52,4.47-24.45,6.83-1.97.58-3.92,1.18-5.85,1.77-4.37,1.34-8.66,2.71-12.88,4.1-4.11,1.35-8.18,2.72-12.14,4.13-8.89,3.14-15.76,9.69-19.55,17.78.01.09.03.17.04.26.22,1.38.46,2.77.68,4.15.41,2.46.82,4.92,1.27,7.37.19,1.04.38,2.09.58,3.13.55,2.95,1.13,5.9,1.73,8.85.13.66.26,1.31.4,1.97.77,3.69,1.58,7.37,2.43,11.05.07.31.15.62.22.93.75,3.18,1.53,6.36,2.33,9.52.3,1.16.6,2.32.9,3.47.63,2.42,1.28,4.83,1.95,7.23.33,1.2.66,2.4,1,3.6.98,3.44,1.99,6.87,3.04,10.29,7.98,25.8,40.29,34.49,60.1,16.14,12.18-11.47,23.2-24.3,33.68-37.85.14-.18.27-.36.41-.53.56-.72,1.11-1.45,1.66-2.17,8.56-11.31,16.94-23.29,25.61-35.7,6.4-9.16,12.95-18.52,19.8-27.92,10.36-14.33,21.14-28.39,32.99-41.52-4.07.6-8.12,1.21-12.13,1.84-24.11,3.77-47.21,8.08-69.14,12.92Z"/>
    <path class="cls-4" d="M651.38,663.83c-22.06,10.31-49.11,21.34-80.19,31.65-14.93,4.95-30.78,9.74-47.45,14.2,7.64,12.7,15.75,25.09,24.43,37.04,6.65,9.16,15.62,15.66,25.52,19.26,13.17,4.69,27.97,4.2,41.14-1.49,3.22-1.45,6.35-3.24,9.33-5.37,2.05-1.47,4.09-2.96,6.11-4.46,2.46-1.82,4.89-3.68,7.31-5.54,1.69-1.31,3.37-2.62,5.05-3.95.54-.43,1.08-.87,1.62-1.3,1.61-1.29,3.23-2.59,4.82-3.9,1.72-1.41,3.41-2.85,5.11-4.28.9-.77,1.81-1.53,2.71-2.3,1.5-1.29,2.99-2.59,4.48-3.9,1.71-1.51,3.42-3.03,5.11-4.56.85-.76,1.7-1.52,2.54-2.29,2.86-2.62,5.7-5.27,8.5-7.96.07-.07.15-.14.22-.21,17.75-17.02,34.4-35.21,50.35-54.01,13.63-16.1,26.76-32.64,39.72-49.3-31.31,7.46-52.47,18.89-77.87,32.65-10.2,5.99-23.17,12.83-38.56,20.02Z"/>
    <path class="cls-4" d="M800.24,849.41c40.29-31.33,72.28-56.97,112.29-103.66,24.45-28.56,46.04-56.85,63.79-78.81,3.44-4.46,6.9-8.92,10.36-13.39-7.49-6.61-18.57-9.21-29.63-3.51-34.97,18.03-60.96,40.09-87.68,62.77-46.2,39.21-93.88,79.63-187.62,102.67-1.8.44-3.59.93-5.37,1.45-.16.05-.32.09-.48.14-1.69.5-3.37,1.04-5.04,1.6-.27.09-.53.18-.79.27-1.6.56-3.19,1.14-4.77,1.76-.32.13-.64.26-.96.39-1.42.57-2.82,1.16-4.22,1.77-.36.16-.72.32-1.08.48-1.33.61-2.65,1.24-3.97,1.89-.42.21-.84.41-1.25.62-1.42.72-2.83,1.48-4.23,2.25-.32.18-.64.36-.96.54-3.9,2.21-7.69,4.63-11.35,7.23-1.24.88-2.46,1.78-3.67,2.7,0,0,0,0,0,0,2.32,1.95,4.8,3.71,7.02,5.78,5.53,5.18,15.31,16.78,20.61,22.19,26.74,27.24,39.72,39.52,73.04,22.21,16.05-8.34,52.31-28.73,65.97-39.35Z"/>
    <path class="cls-4" d="M1347.14,511.46c-44.71-10.64-87.25-3.03-126.99,15.5-51.21,23.89-97.74,65.92-138.2,110.49-30.35,33.43-57.27,68.27-80.19,97.93,18-12.17,34.55-24.5,50.36-36.71,45.09-35.16,84.22-68.95,133.67-95.73.55-.3,1.1-.6,1.65-.89.39-.21.77-.41,1.16-.62,37.26-19.93,80.48-35.86,136.51-45.22.12-.02.23-.04.35-.06.02,0,.04,0,.06-.01,8.61-1.62,17.29-3.6,25.81-6.13,10.63-3.28,20.97-7.45,30.89-12.53,3.98-2.17,7.84-4.56,11.55-7.19-2.35-2.16-5.1-4.01-8.36-5.34-12.92-6.05-25.68-10.49-38.27-13.48Z"/>
    <path class="cls-4" d="M1293.2,826.98c.76-.6,1.52-1.19,2.28-1.79.3-.24.59-.48.89-.71.6-.48,1.2-.96,1.8-1.44.67-.54,1.33-1.07,1.99-1.61.97-.79,1.93-1.58,2.89-2.37.58-.48,1.16-.96,1.74-1.44,1.02-.85,2.04-1.71,3.05-2.57.51-.43,1.01-.86,1.52-1.29,1.07-.92,2.14-1.84,3.21-2.77.43-.38.87-.76,1.3-1.14.07-.06.14-.13.21-.19,1.04-.92,2.09-1.84,3.12-2.76.38-.34.76-.68,1.13-1.01,1.15-1.04,2.3-2.08,3.44-3.12.32-.29.64-.59.96-.88,1.19-1.09,2.37-2.19,3.55-3.3.26-.25.53-.5.79-.74,1.23-1.16,2.45-2.32,3.66-3.49.2-.2.4-.39.61-.59,1.26-1.22,2.52-2.45,3.77-3.68.15-.15.3-.29.45-.44,1.3-1.29,2.59-2.58,3.87-3.88.09-.09.18-.18.26-.27,1.34-1.36,2.67-2.72,3.99-4.1.02-.03.05-.05.07-.08,1.94-2.02,3.86-4.05,5.77-6.1,1.12-1.21,2.23-2.43,3.34-3.65.75-.82,1.5-1.63,2.24-2.46,1.37-1.53,2.73-3.07,4.08-4.62.46-.52.92-1.04,1.37-1.56,1.42-1.64,2.83-3.29,4.23-4.95.38-.45.77-.9,1.15-1.36,1.1-1.31,2.18-2.63,3.26-3.95,1.03-1.26,2.06-2.52,3.07-3.79,2.89-3.6,5.74-7.23,8.52-10.91.12-.15.23-.31.35-.46,1.59-2.1,3.16-4.22,4.72-6.35.17-.24.34-.48.51-.71.28-.39.57-.78.85-1.18,1.67-2.31,3.32-4.63,4.95-6.97.54-.77,1.07-1.55,1.6-2.33.35-.51.71-1.03,1.06-1.54,1.07-1.57,2.13-3.15,3.18-4.73,1.16-1.75,2.32-3.51,3.46-5.28.54-.83,1.07-1.66,1.6-2.49,1.57-2.47,3.12-4.96,4.65-7.47.32-.52.63-1.03.95-1.55,1.69-2.8,3.36-5.62,4.99-8.45.14-.24.28-.48.42-.73,4.65-8.09,9.06-16.32,13.23-24.68.01-.03.03-.06.04-.09,1.04-2.08,2.06-4.16,3.06-6.25.11-.23.22-.46.33-.69.43-.9.86-1.8,1.28-2.71.13-.28.26-.56.39-.83.85-1.82,1.69-3.65,2.52-5.48.16-.35.31-.69.47-1.04.3-.67.61-1.34.91-2.02.33-.75.65-1.5.98-2.25.7-1.61,1.4-3.22,2.08-4.84.17-.39.33-.78.49-1.17.36-.85.72-1.69,1.07-2.54.46-1.12.92-2.25,1.37-3.38.45-1.1.89-2.2,1.33-3.31.16-.39.3-.79.46-1.18.43-1.09.85-2.18,1.27-3.28.92-2.39,1.82-4.78,2.69-7.19.55-1.5,1.08-3,1.62-4.51.39-1.11.78-2.23,1.16-3.34,1.05-3.02,2.05-6.06,3.04-9.11,0-.03.02-.05.03-.08,0,0,0,0,0,0-2.61-2.63-5.89-4.6-9.51-5.62-1.08-.31-2.19-.52-3.32-.65-3.75-.44-7.73.12-11.63,1.96-60.35,28.17-105.22,66.39-144.39,108.93-.15.17-.3.34-.46.5-2.98,3.24-5.92,6.5-8.84,9.79-2.71,3.05-5.38,6.12-8.04,9.21-.94,1.09-1.88,2.19-2.82,3.29-1.35,1.58-2.69,3.16-4.03,4.75-47.16,55.95-88.48,116.89-143.88,171.14-3.49,3.42-7.05,6.82-10.66,10.18,3.35,1.86,7.21,2.63,11.02,2.42.56-.03,1.12-.08,1.67-.15.4-.05.81-.1,1.21-.17.62-.12,1.24-.25,1.84-.42,6.02-1.65,12-3.4,17.95-5.28,3.02-.95,6.03-1.93,9.03-2.94.91-.31,1.81-.63,2.72-.94,2.08-.71,4.16-1.43,6.23-2.17,1.15-.41,2.3-.85,3.44-1.27,1.81-.66,3.62-1.32,5.42-2.01,1.28-.49,2.54-.99,3.82-1.49,1.66-.65,3.32-1.29,4.97-1.96,1.34-.54,2.67-1.1,4-1.65,1.58-.65,3.16-1.31,4.73-1.97,1.35-.58,2.7-1.17,4.04-1.76,1.55-.68,3.1-1.35,4.64-2.05,1.32-.59,2.64-1.2,3.96-1.81,1.58-.73,3.15-1.45,4.72-2.2,1.24-.59,2.48-1.18,3.71-1.78,2.09-1.01,4.18-2.02,6.26-3.07.19-.09.38-.19.57-.28,1.71-.86,3.42-1.73,5.12-2.61.12-.06.23-.12.35-.18,18.57-9.62,36.42-20.42,53.47-32.28.14-.1.28-.2.42-.3,1.52-1.06,3.03-2.13,4.54-3.2.41-.3.82-.6,1.24-.89,1.23-.88,2.45-1.77,3.67-2.66.59-.44,1.18-.88,1.77-1.31,1.03-.76,2.05-1.52,3.08-2.29.73-.55,1.45-1.1,2.18-1.65.87-.67,1.75-1.33,2.62-2,.83-.64,1.65-1.28,2.47-1.93Z"/>
    <path class="cls-3" d="M1464.6,468.06c.4-.23.8-.46,1.19-.71.15-.1.3-.2.45-.3.31-.21.63-.42.93-.64.27-.2.53-.41.79-.61.18-.14.36-.27.53-.42.43-.35.84-.72,1.24-1.1,0,0,.01-.01.02-.02,1.28-1.22,2.45-2.57,3.45-4.05-5.92-16.85-17.51-31.46-33.23-41-9.99-6.07-18.91-11.38-26.87-16.03-6.37-3.72-12.12-7.01-17.32-9.92-2.6-1.46-5.06-2.82-7.39-4.09-2.29-1.25-4.46-2.42-6.5-3.51-1.13-.6-2.21-1.17-3.27-1.73-.44-.23-.87-.46-1.29-.68-1.03-.54-2.03-1.05-2.99-1.54-.9-.46-1.78-.9-2.62-1.33-12.65-6.35-18.75-8.49-21.6-9.17-.28-.06-.55-.1-.83-.15-4.69-.94-9.32-1.04-13.93-.47-11.43,1.39-22.72,6.68-34.36,12.17-10.16,4.79-20.6,9.74-31.65,12.4-.26.06-.52.11-.78.17-.81.19-1.63.37-2.45.53-3.74.73-7.57,1.16-11.47,1.23-.65.01-1.3.04-1.96.03-43.69,1.6-109.84-80.67-154.07-86.37-.92-.12-1.84-.22-2.75-.27-11.47-.53-20.04,1.35-27.6,5.03-.68.33-1.36.67-2.03,1.04-.5.27-1,.55-1.5.84-.99.58-1.97,1.19-2.94,1.83s-1.93,1.31-2.89,2.01c-5.27,3.85-10.43,8.59-16.27,13.94-10.55,9.68-22.51,20.66-39.31,30.02-31.78,17.7-70.6-13.32-119.74-52.59-40.32-32.22-86.03-68.74-125.62-75.24-37.26-6.12-135.97,44.47-268.2,136.68-14.57,10.16-25.62,24.42-31.77,40.73.73.98,1.52,1.92,2.38,2.78.03.03.07.07.1.1.03.03.06.06.09.09.52.51,1.06,1.01,1.61,1.48.02.02.05.04.07.05.5.41,1.01.8,1.54,1.18.17.12.33.24.5.36.52.36,1.06.71,1.61,1.03.17.1.35.2.53.29.44.25.89.48,1.34.7.2.1.39.19.59.28.59.27,1.18.51,1.79.74.19.07.37.13.56.2.55.19,1.1.37,1.67.52.13.04.27.08.4.12.54.14,1.08.26,1.63.37.09.02.18.03.28.05.52.09,1.03.17,1.55.23.05,0,.1.01.15.02.57.06,1.14.11,1.71.13.02,0,.04,0,.06,0,.23,0,.46,0,.69,0,10.57-3.05,21.45-6,32.62-8.83,66.46-19.4,152.17-32.38,245.77-38.64,77.35-5.94,160.12-7.12,245.59-2.35,93.96,4.36,177.36,15.36,250.33,31.2,76.39,15.55,143.77,36.65,194.44,63.49.63.3,1.28.59,1.91.88.32.03.65.06.97.08.06,0,.12,0,.18.01.44.02.87.03,1.31.03h0c1.26,0,2.5-.1,3.73-.28.12-.02.25-.03.37-.05.26-.04.52-.1.78-.15.3-.06.6-.12.89-.19.16-.04.33-.08.49-.12.65-.17,1.29-.38,1.93-.6.24-.08.48-.15.72-.24.27-.1.55-.2.82-.31.58-.24,1.15-.5,1.71-.78.31-.15.62-.3.92-.47.09-.05.17-.1.26-.15Z"/>
    <path class="cls-5" d="M1434.29,835.63c17.08-35.3,14.49-83.5,38.88-115.05-.22-7.43-.45-14.88-.7-22.37-.33-10.01-12.89-14.58-18.98-6.92-17.26,21.73-21.04,43.11-30.29,65.87-11.94,29.36-29.56,65.39-81.36,106.07-18.75,14.72-51.2,32.63-56.89,36.66-21.1,14.96,20.31,10.78,38.54,9.4h0c45.1-30.67,97.43-45.33,110.79-73.66Z"/>
    <path class="cls-4" d="M1478.79,862.46c.25-57.63-3.92-86.8-5.62-141.88-24.39,31.55-21.8,79.75-38.88,115.05-13.36,28.34-65.68,42.99-110.79,73.66h0c34.47-1.37,89.07,5.55,110.57,4.81,50.17-1.74,44.58-21.42,44.72-51.64Z"/>
    <path class="cls-5" d="M631.52,906.04c-5.48-4.47-36.53-24.55-54.66-40.81-50.1-44.94-68.12-83.9-80.55-115.56-9.64-24.55-14.11-47.46-31.17-71.16-6.01-8.36-17.52-3.86-17.38,6.81.1,7.98.22,15.92.34,23.84,24.14,34.38,23.86,85.7,41.35,123.87,13.71,30.62,63.14,47.82,106.55,81.89h0c17.06,2.02,55.85,7.72,35.52-8.87Z"/>
    <path class="cls-4" d="M489.46,833.02c-17.49-38.16-17.21-89.49-41.35-123.87.86,58.7-1.74,89.67,1.06,151.14,1.47,32.24-2.87,53.06,43.98,56.42,20.08,1.44,70.67-4.3,102.87-1.81h0c-43.41-34.07-92.84-51.27-106.55-81.89Z"/>
  </g>
</svg>